<svg width="32" height="32" viewBox="0 0 32 32" fill="none" xmlns="http://www.w3.org/2000/svg">
<path d="M15.8233 3.17815C13.8491 6.87641 31.4456 6.06461 30.7589 7.23722C30.0722 8.40982 28.2696 21.2184 31.6172 18.1516C34.9649 15.0848 15.2225 14.9946 16.4242 14.4533C17.6259 13.9121 17.7976 -0.520113 15.8233 3.17815Z" fill="#112F42"/>
<path d="M0.154619 13.9804C-1.81962 17.6787 15.7769 16.8669 15.0902 18.0395C14.4035 19.2121 12.6009 32.0207 15.9485 28.9538C19.2962 25.887 -0.446236 25.7968 0.755474 25.2556C1.95718 24.7144 2.12886 10.2821 0.154619 13.9804Z" fill="#112F42"/>
<path d="M15.8233 16.5531C13.8491 20.2514 31.4456 19.4396 30.7589 20.6122C30.0722 21.7848 28.2696 34.5934 31.6172 31.5266C34.9649 28.4598 15.2225 28.3696 16.4242 27.8283C17.6259 27.2871 17.7976 12.8549 15.8233 16.5531Z" fill="#FD2559"/>
<path d="M0.154619 0.605395C-1.81962 4.30366 15.7769 3.49185 15.0902 4.66446C14.4035 5.83707 12.6009 18.6457 15.9485 15.5788C19.2962 12.512 -0.446236 12.4218 0.755474 11.8806C1.95718 11.3394 2.12886 -3.09287 0.154619 0.605395Z" fill="#FD2559"/>
</svg>
