<svg width="100" height="40" viewBox="0 0 100 40" fill="none" xmlns="http://www.w3.org/2000/svg">
<g clip-path="url(#clip0_447_3944)">
<mask id="mask0_447_3944" style="mask-type:luminance" maskUnits="userSpaceOnUse" x="3" y="0" width="35" height="41">
<path d="M3.29395 0.015625H37.0939V40.0156H3.29395V0.015625Z" fill="white"/>
</mask>
<g mask="url(#mask0_447_3944)">
<path fill-rule="evenodd" clip-rule="evenodd" d="M10.0721 21.2365V0.046875L3.29395 8.18542V39.9854L7.96374 34.3792L8.95749 33.1729L10.0721 31.8469L14.32 26.7531L15.9169 28.35L20.7367 33.1729L27.5148 39.9854H37.0939L30.3158 33.1729L18.6877 21.5385L29.8637 8.09479L20.4054 8.87812L13.8679 16.7156L10.0721 21.2365Z" fill="white"/>
</g>
<path d="M14.2288 39.7135H12.2705V37.7551H14.2288V39.7135ZM12.2705 36.8499V34.8916H14.2288V36.8499H12.2705ZM15.133 34.8916H17.0903V36.8499H15.133V34.8916ZM17.0903 37.7551V39.7135H15.133V37.7551H17.0903Z" fill="white"/>
<path fill-rule="evenodd" clip-rule="evenodd" d="M5.25195 38.9603L14.3499 28.0488L25.2551 38.9603L14.5301 30.6707L5.25195 38.9603Z" fill="white"/>
<path d="M38.4683 33.7287C37.0985 33.7287 35.962 33.3725 35.06 32.6579C34.16 31.9412 33.71 30.8735 33.71 29.4537C33.71 28.3818 33.961 27.5412 34.4641 26.9329C34.9693 26.3225 35.6308 25.8745 36.4475 25.5912C37.2662 25.3079 38.1495 25.1235 39.0975 25.037C40.3412 24.912 41.2308 24.7818 41.7641 24.6454C42.2995 24.5068 42.5683 24.2079 42.5683 23.7495V23.6912C42.5683 23.0995 42.3818 22.6433 42.01 22.3204C41.6402 21.9954 41.1162 21.8329 40.4391 21.8329C39.7245 21.8329 39.1558 21.9891 38.7308 22.2995C38.3079 22.611 38.0277 23.0068 37.8891 23.487L34.2141 23.187C34.486 21.8818 35.1652 20.8454 36.2516 20.0787C37.337 19.312 38.7402 18.9287 40.46 18.9287C41.5235 18.9287 42.5193 19.0975 43.4475 19.4329C44.3745 19.7693 45.1235 20.2943 45.6933 21.0079C46.262 21.7225 46.5475 22.6485 46.5475 23.787V33.4579H42.7725V31.4704H42.66C42.312 32.135 41.7912 32.6777 41.0975 33.0995C40.4027 33.5183 39.5266 33.7287 38.4683 33.7287ZM39.61 30.9829C40.4787 30.9829 41.1943 30.7308 41.7558 30.2245C42.3162 29.7162 42.5975 29.086 42.5975 28.3329V26.812C42.4412 26.9183 42.1995 27.011 41.8725 27.0912C41.5475 27.1725 41.1985 27.2433 40.8266 27.3037C40.4568 27.362 40.1266 27.412 39.835 27.4537C39.137 27.5537 38.5745 27.7516 38.1475 28.0454C37.7225 28.337 37.51 28.762 37.51 29.3204C37.51 29.8704 37.7068 30.286 38.1016 30.5662C38.4954 30.8443 38.9985 30.9829 39.61 30.9829Z" fill="white"/>
<path d="M49.0537 33.4577V14.3369H53.0287V21.5244H53.1537C53.3339 21.1327 53.5881 20.739 53.9162 20.3411C54.2464 19.9411 54.6829 19.6067 55.2245 19.3369C55.7662 19.065 56.435 18.9286 57.2329 18.9286C58.2829 18.9286 59.2464 19.2015 60.1245 19.7452C61.0016 20.29 61.7079 21.1098 62.2412 22.2036C62.7745 23.2952 63.0412 24.664 63.0412 26.3077C63.0412 27.9057 62.7829 29.2536 62.2662 30.3536C61.7495 31.4515 61.0516 32.2817 60.1745 32.8452C59.2964 33.4098 58.3131 33.6911 57.2245 33.6911C56.4516 33.6911 55.7964 33.563 55.2579 33.3077C54.7183 33.0525 54.2798 32.7307 53.9412 32.3411C53.6016 31.9525 53.3391 31.5598 53.1537 31.1619H52.9745V33.4577H49.0537ZM52.9454 26.2869C52.9454 27.5619 53.2079 28.5869 53.7329 29.3619C54.26 30.1369 55.0037 30.5244 55.962 30.5244C56.9391 30.5244 57.687 30.1317 58.2037 29.3452C58.7204 28.5567 58.9787 27.5369 58.9787 26.2869C58.9787 25.0432 58.7214 24.0327 58.2079 23.2577C57.6933 22.4827 56.9454 22.0952 55.962 22.0952C54.9975 22.0952 54.2537 22.4734 53.7287 23.2286C53.2058 23.9848 52.9454 25.0036 52.9454 26.2869Z" fill="white"/>
<path d="M69.1109 33.7287C67.7411 33.7287 66.6046 33.3725 65.7025 32.6579C64.8025 31.9412 64.3525 30.8735 64.3525 29.4537C64.3525 28.3818 64.6036 27.5412 65.1067 26.9329C65.6119 26.3225 66.2734 25.8745 67.09 25.5912C67.9088 25.3079 68.7921 25.1235 69.74 25.037C70.9838 24.912 71.8734 24.7818 72.4067 24.6454C72.9421 24.5068 73.2109 24.2079 73.2109 23.7495V23.6912C73.2109 23.0995 73.0244 22.6433 72.6525 22.3204C72.2827 21.9954 71.7588 21.8329 71.0817 21.8329C70.3671 21.8329 69.7984 21.9891 69.3734 22.2995C68.9505 22.611 68.6702 23.0068 68.5317 23.487L64.8567 23.187C65.1286 21.8818 65.8077 20.8454 66.8942 20.0787C67.9796 19.312 69.3827 18.9287 71.1025 18.9287C72.1661 18.9287 73.1619 19.0975 74.09 19.4329C75.0171 19.7693 75.7661 20.2943 76.3359 21.0079C76.9046 21.7225 77.19 22.6485 77.19 23.787V33.4579H73.415V31.4704H73.3025C72.9546 32.135 72.4338 32.6777 71.74 33.0995C71.0452 33.5183 70.1692 33.7287 69.1109 33.7287ZM70.2525 30.9829C71.1213 30.9829 71.8369 30.7308 72.3984 30.2245C72.9588 29.7162 73.24 29.086 73.24 28.3329V26.812C73.0838 26.9183 72.8421 27.011 72.515 27.0912C72.19 27.1725 71.8411 27.2433 71.4692 27.3037C71.0994 27.362 70.7692 27.412 70.4775 27.4537C69.7796 27.5537 69.2171 27.7516 68.79 28.0454C68.365 28.337 68.1525 28.762 68.1525 29.3204C68.1525 29.8704 68.3494 30.286 68.7442 30.5662C69.138 30.8443 69.6411 30.9829 70.2525 30.9829Z" fill="white"/>
<path d="M83.5961 25.1662V33.4579H79.6211V19.1162H83.4128V21.6454H83.5794C83.9044 20.812 84.4378 20.1516 85.1794 19.662C85.9232 19.1735 86.8273 18.9287 87.8919 18.9287C89.3857 18.9287 90.5846 19.411 91.4878 20.3745C92.3898 21.336 92.8419 22.6537 92.8419 24.3287V33.4579H88.8628V25.037C88.8711 24.16 88.6471 23.4735 88.1919 22.9787C87.7357 22.485 87.1107 22.237 86.3169 22.237C85.5138 22.237 84.8607 22.4943 84.3586 23.0079C83.8586 23.5193 83.6044 24.2391 83.5961 25.1662Z" fill="white"/>
<path d="M38.9069 38.4637C38.809 38.4637 38.7257 38.4303 38.6569 38.3637C38.5871 38.2949 38.5527 38.2116 38.5527 38.1137C38.5527 38.0168 38.5871 37.9345 38.6569 37.8678C38.7257 37.7991 38.809 37.7637 38.9069 37.7637C38.9986 37.7637 39.0788 37.7991 39.1486 37.8678C39.2204 37.9345 39.2569 38.0168 39.2569 38.1137C39.2569 38.2116 39.2204 38.2949 39.1486 38.3637C39.0788 38.4303 38.9986 38.4637 38.9069 38.4637Z" fill="white"/>
<path d="M40.9997 38.4637C40.9018 38.4637 40.8184 38.4303 40.7497 38.3637C40.6799 38.2949 40.6455 38.2116 40.6455 38.1137C40.6455 38.0168 40.6799 37.9345 40.7497 37.8678C40.8184 37.7991 40.9018 37.7637 40.9997 37.7637C41.0913 37.7637 41.1715 37.7991 41.2413 37.8678C41.3132 37.9345 41.3497 38.0168 41.3497 38.1137C41.3497 38.2116 41.3132 38.2949 41.2413 38.3637C41.1715 38.4303 41.0913 38.4637 40.9997 38.4637Z" fill="white"/>
<path d="M43.0924 38.4637C42.9945 38.4637 42.9112 38.4303 42.8424 38.3637C42.7727 38.2949 42.7383 38.2116 42.7383 38.1137C42.7383 38.0168 42.7727 37.9345 42.8424 37.8678C42.9112 37.7991 42.9945 37.7637 43.0924 37.7637C43.1841 37.7637 43.2643 37.7991 43.3341 37.8678C43.406 37.9345 43.4424 38.0168 43.4424 38.1137C43.4424 38.2116 43.406 38.2949 43.3341 38.3637C43.2643 38.4303 43.1841 38.4637 43.0924 38.4637Z" fill="white"/>
<path d="M44.8193 38.4262V36.172H45.4235V36.5637H45.4485C45.4902 36.4251 45.5579 36.3199 45.6527 36.247C45.7495 36.1751 45.862 36.1387 45.9902 36.1387C46.0506 36.1387 46.1068 36.147 46.1568 36.1637C46.2089 36.1783 46.2568 36.197 46.2985 36.222L46.111 36.7387C46.0798 36.7251 46.0464 36.7126 46.011 36.7012C45.9777 36.6908 45.9402 36.6845 45.8985 36.6845C45.7704 36.6845 45.662 36.7283 45.5735 36.8137C45.487 36.9001 45.4443 37.0126 45.4443 37.1512V38.4262H44.8193Z" fill="white"/>
<path d="M48.478 38.4717C48.2467 38.4717 48.0488 38.4249 47.8822 38.3301C47.7155 38.2363 47.5863 38.103 47.4947 37.9301C47.4051 37.7551 47.3613 37.5488 47.3613 37.3092C47.3613 37.0759 47.4051 36.8717 47.4947 36.6967C47.5863 36.5217 47.7134 36.3863 47.878 36.2884C48.0415 36.1915 48.2332 36.1426 48.453 36.1426C48.653 36.1426 48.8322 36.1842 48.9905 36.2676C49.1509 36.3509 49.279 36.479 49.3738 36.6509C49.4676 36.8207 49.5155 37.0332 49.5155 37.2884V37.4592H47.978C47.978 37.629 48.0238 37.7624 48.1155 37.8592C48.2092 37.9572 48.3342 38.0051 48.4905 38.0051C48.5957 38.0051 48.6863 37.9832 48.7613 37.9384C48.8384 37.8947 48.8926 37.829 48.9238 37.7426L49.503 37.7801C49.4582 37.9884 49.3457 38.1572 49.1655 38.2842C48.9874 38.4092 48.7582 38.4717 48.478 38.4717ZM47.978 37.0717H48.928C48.9249 36.9384 48.8801 36.829 48.7947 36.7426C48.7113 36.654 48.6009 36.6092 48.4655 36.6092C48.3259 36.6092 48.2124 36.6551 48.1238 36.7467C48.0342 36.8363 47.9863 36.9447 47.978 37.0717Z" fill="white"/>
<path d="M51.4265 38.4676C51.2119 38.4676 51.0348 38.4124 50.8932 38.3009C50.7515 38.1874 50.6807 38.0197 50.6807 37.7967C50.6807 37.628 50.7192 37.4957 50.7973 37.4009C50.8775 37.304 50.9817 37.2332 51.1098 37.1884C51.2369 37.1447 51.3765 37.1155 51.5265 37.1009C51.7202 37.0822 51.8598 37.0624 51.9432 37.0426C52.0286 37.0207 52.0723 36.9738 52.0723 36.9009V36.8926C52.0723 36.7988 52.0432 36.7259 51.9848 36.6759C51.9265 36.6238 51.8442 36.5967 51.739 36.5967C51.6244 36.5967 51.5348 36.6217 51.4682 36.6717C51.4015 36.7217 51.3567 36.7842 51.3348 36.8592L50.7598 36.8092C50.8015 36.6072 50.9067 36.4457 51.0765 36.3259C51.2484 36.204 51.4692 36.1426 51.739 36.1426C51.9057 36.1426 52.0609 36.1697 52.2057 36.2217C52.3525 36.2749 52.4702 36.3582 52.5598 36.4717C52.6515 36.5832 52.6973 36.728 52.6973 36.9051V38.4259H52.1057V38.1134H52.0848C52.0317 38.2197 51.9494 38.3051 51.839 38.3717C51.7307 38.4353 51.5932 38.4676 51.4265 38.4676ZM51.6057 38.0384C51.7411 38.0384 51.8536 37.9988 51.9432 37.9176C52.0317 37.8374 52.0765 37.7384 52.0765 37.6217V37.3801C52.0515 37.3967 52.0119 37.4124 51.9598 37.4259C51.9098 37.4374 51.8557 37.4488 51.7973 37.4592C51.739 37.4676 51.6869 37.4749 51.6432 37.4801C51.5317 37.4967 51.4432 37.529 51.3765 37.5759C51.3098 37.6207 51.2765 37.6874 51.2765 37.7759C51.2765 37.8624 51.3067 37.928 51.3682 37.9717C51.4317 38.0165 51.5109 38.0384 51.6057 38.0384Z" fill="white"/>
<path d="M54.6699 35.4219V38.426H54.0449V35.4219H54.6699Z" fill="white"/>
<path d="M57.2324 36.1725V36.6434H56.8074V37.735C56.8074 37.8215 56.8261 37.8798 56.8657 37.91C56.9042 37.9413 56.9553 37.9559 57.0199 37.9559C57.0469 37.9559 57.0751 37.9538 57.1032 37.9475C57.1334 37.9423 57.1574 37.9382 57.174 37.935L57.274 38.3975C57.2407 38.409 57.1949 38.4204 57.1365 38.4309C57.0803 38.4444 57.0126 38.4527 56.9324 38.4559C56.7042 38.4663 56.5209 38.4184 56.3824 38.31C56.2459 38.2017 56.1792 38.0371 56.1824 37.8142V36.6434H55.874V36.1725H56.1824V35.6309H56.8074V36.1725H57.2324Z" fill="white"/>
<path d="M58.8639 39.3052C58.7743 39.3052 58.6983 39.2969 58.6348 39.2802C58.5733 39.2656 58.5243 39.251 58.4889 39.2344L58.6306 38.751C58.741 38.7844 58.8348 38.7927 58.9098 38.776C58.9848 38.7615 59.0441 38.7031 59.0889 38.601L59.1306 38.4927L58.3223 36.1719H58.9806L59.4473 37.826H59.4681L59.9389 36.1719H60.6014L59.7223 38.6844C59.6577 38.8646 59.5566 39.0135 59.4181 39.1302C59.2785 39.2469 59.0941 39.3052 58.8639 39.3052Z" fill="white"/>
<path d="M63.6064 38.4259V36.1717H64.2023V36.5676H64.2273C64.2742 36.4342 64.3523 36.3301 64.4606 36.2551C64.571 36.1801 64.7033 36.1426 64.8564 36.1426C65.0117 36.1426 65.1439 36.1822 65.2523 36.2592C65.3606 36.3342 65.4325 36.4374 65.4689 36.5676H65.4939C65.5377 36.4405 65.62 36.3374 65.7398 36.2592C65.8617 36.1822 66.0064 36.1426 66.1731 36.1426C66.3814 36.1426 66.5502 36.2092 66.6814 36.3426C66.8148 36.4759 66.8814 36.6655 66.8814 36.9092V38.4259H66.2564V37.0342C66.2564 36.9092 66.2231 36.8165 66.1564 36.7551C66.0919 36.6915 66.0106 36.6592 65.9106 36.6592C65.796 36.6592 65.7075 36.6957 65.6439 36.7676C65.5794 36.8405 65.5481 36.9342 65.5481 37.0509V38.4259H64.9398V37.0217C64.9398 36.9113 64.9075 36.8238 64.8439 36.7592C64.7825 36.6926 64.7002 36.6592 64.5981 36.6592C64.495 36.6592 64.4075 36.6967 64.3356 36.7717C64.2658 36.8467 64.2314 36.9467 64.2314 37.0717V38.4259H63.6064Z" fill="white"/>
<path d="M68.8777 38.4676C68.6631 38.4676 68.486 38.4124 68.3443 38.3009C68.2027 38.1874 68.1318 38.0197 68.1318 37.7967C68.1318 37.628 68.1704 37.4957 68.2485 37.4009C68.3287 37.304 68.4329 37.2332 68.561 37.1884C68.6881 37.1447 68.8277 37.1155 68.9777 37.1009C69.1714 37.0822 69.311 37.0624 69.3943 37.0426C69.4798 37.0207 69.5235 36.9738 69.5235 36.9009V36.8926C69.5235 36.7988 69.4943 36.7259 69.436 36.6759C69.3777 36.6238 69.2954 36.5967 69.1902 36.5967C69.0756 36.5967 68.986 36.6217 68.9193 36.6717C68.8527 36.7217 68.8079 36.7842 68.786 36.8592L68.211 36.8092C68.2527 36.6072 68.3579 36.4457 68.5277 36.3259C68.6995 36.204 68.9204 36.1426 69.1902 36.1426C69.3568 36.1426 69.512 36.1697 69.6568 36.2217C69.8037 36.2749 69.9214 36.3582 70.011 36.4717C70.1027 36.5832 70.1485 36.728 70.1485 36.9051V38.4259H69.5568V38.1134H69.536C69.4829 38.2197 69.4006 38.3051 69.2902 38.3717C69.1818 38.4353 69.0443 38.4676 68.8777 38.4676ZM69.0568 38.0384C69.1923 38.0384 69.3048 37.9988 69.3943 37.9176C69.4829 37.8374 69.5277 37.7384 69.5277 37.6217V37.3801C69.5027 37.3967 69.4631 37.4124 69.411 37.4259C69.361 37.4374 69.3068 37.4488 69.2485 37.4592C69.1902 37.4676 69.1381 37.4749 69.0943 37.4801C68.9829 37.4967 68.8943 37.529 68.8277 37.5759C68.761 37.6207 68.7277 37.6874 68.7277 37.7759C68.7277 37.8624 68.7579 37.928 68.8193 37.9717C68.8829 38.0165 68.962 38.0384 69.0568 38.0384Z" fill="white"/>
<path d="M72.3256 38.4635C72.1558 38.4635 72.0016 38.4198 71.8631 38.3302C71.7235 38.2417 71.6141 38.1115 71.5339 37.9385C71.4527 37.7667 71.4131 37.5542 71.4131 37.301C71.4131 37.0427 71.4548 36.8292 71.5381 36.6594C71.6214 36.4875 71.7318 36.3583 71.8714 36.2719C72.01 36.1865 72.161 36.1427 72.3256 36.1427C72.4506 36.1427 72.5548 36.1656 72.6381 36.2094C72.7235 36.251 72.7933 36.3042 72.8464 36.3677C72.8985 36.4292 72.9391 36.4906 72.9673 36.551H72.9839V35.4219H73.6089V38.426H72.9923V38.0635H72.9673C72.9391 38.1281 72.8975 38.1906 72.8423 38.251C72.7891 38.3125 72.7193 38.3635 72.6339 38.4052C72.5506 38.4438 72.4475 38.4635 72.3256 38.4635ZM72.5256 37.9635C72.6756 37.9635 72.7923 37.9042 72.8756 37.7844C72.9589 37.6625 73.0006 37.5 73.0006 37.2969C73.0006 37.0969 72.9589 36.9375 72.8756 36.8177C72.7923 36.699 72.6756 36.6385 72.5256 36.6385C72.3693 36.6385 72.2516 36.7 72.1714 36.8219C72.0902 36.9448 72.0506 37.1031 72.0506 37.2969C72.0506 37.4948 72.0902 37.6552 72.1714 37.7802C72.2548 37.9031 72.3725 37.9635 72.5256 37.9635Z" fill="white"/>
<path d="M76.0092 38.4717C75.778 38.4717 75.5801 38.4249 75.4134 38.3301C75.2467 38.2363 75.1176 38.103 75.0259 37.9301C74.9363 37.7551 74.8926 37.5488 74.8926 37.3092C74.8926 37.0759 74.9363 36.8717 75.0259 36.6967C75.1176 36.5217 75.2447 36.3863 75.4092 36.2884C75.5728 36.1915 75.7645 36.1426 75.9842 36.1426C76.1842 36.1426 76.3634 36.1842 76.5217 36.2676C76.6822 36.3509 76.8103 36.479 76.9051 36.6509C76.9988 36.8207 77.0467 37.0332 77.0467 37.2884V37.4592H75.5092C75.5092 37.629 75.5551 37.7624 75.6467 37.8592C75.7405 37.9572 75.8655 38.0051 76.0217 38.0051C76.127 38.0051 76.2176 37.9832 76.2926 37.9384C76.3697 37.8947 76.4238 37.829 76.4551 37.7426L77.0342 37.7801C76.9895 37.9884 76.877 38.1572 76.6967 38.2842C76.5186 38.4092 76.2895 38.4717 76.0092 38.4717ZM75.5092 37.0717H76.4592C76.4561 36.9384 76.4113 36.829 76.3259 36.7426C76.2426 36.654 76.1322 36.6092 75.9967 36.6092C75.8572 36.6092 75.7436 36.6551 75.6551 36.7467C75.5655 36.8363 75.5176 36.9447 75.5092 37.0717Z" fill="white"/>
<path d="M81.1626 38.4717C80.9313 38.4717 80.7334 38.4249 80.5667 38.3301C80.4001 38.2363 80.2709 38.103 80.1792 37.9301C80.0896 37.7551 80.0459 37.5488 80.0459 37.3092C80.0459 37.0759 80.0896 36.8717 80.1792 36.6967C80.2709 36.5217 80.398 36.3863 80.5626 36.2884C80.7261 36.1915 80.9178 36.1426 81.1376 36.1426C81.3376 36.1426 81.5167 36.1842 81.6751 36.2676C81.8355 36.3509 81.9636 36.479 82.0584 36.6509C82.1521 36.8207 82.2001 37.0332 82.2001 37.2884V37.4592H80.6626C80.6626 37.629 80.7084 37.7624 80.8001 37.8592C80.8938 37.9572 81.0188 38.0051 81.1751 38.0051C81.2803 38.0051 81.3709 37.9832 81.4459 37.9384C81.523 37.8947 81.5771 37.829 81.6084 37.7426L82.1876 37.7801C82.1428 37.9884 82.0303 38.1572 81.8501 38.2842C81.6719 38.4092 81.4428 38.4717 81.1626 38.4717ZM80.6626 37.0717H81.6126C81.6094 36.9384 81.5646 36.829 81.4792 36.7426C81.3959 36.654 81.2855 36.6092 81.1501 36.6092C81.0105 36.6092 80.8969 36.6551 80.8084 36.7467C80.7188 36.8363 80.6709 36.9447 80.6626 37.0717Z" fill="white"/>
<path d="M84.112 38.4676C83.8975 38.4676 83.7204 38.4124 83.5787 38.3009C83.437 38.1874 83.3662 38.0197 83.3662 37.7967C83.3662 37.628 83.4048 37.4957 83.4829 37.4009C83.5631 37.304 83.6673 37.2332 83.7954 37.1884C83.9225 37.1447 84.062 37.1155 84.212 37.1009C84.4058 37.0822 84.5454 37.0624 84.6287 37.0426C84.7141 37.0207 84.7579 36.9738 84.7579 36.9009V36.8926C84.7579 36.7988 84.7287 36.7259 84.6704 36.6759C84.612 36.6238 84.5298 36.5967 84.4245 36.5967C84.31 36.5967 84.2204 36.6217 84.1537 36.6717C84.087 36.7217 84.0423 36.7842 84.0204 36.8592L83.4454 36.8092C83.487 36.6072 83.5923 36.4457 83.762 36.3259C83.9339 36.204 84.1548 36.1426 84.4245 36.1426C84.5912 36.1426 84.7464 36.1697 84.8912 36.2217C85.0381 36.2749 85.1558 36.3582 85.2454 36.4717C85.337 36.5832 85.3829 36.728 85.3829 36.9051V38.4259H84.7912V38.1134H84.7704C84.7173 38.2197 84.635 38.3051 84.5245 38.3717C84.4162 38.4353 84.2787 38.4676 84.112 38.4676ZM84.2912 38.0384C84.4266 38.0384 84.5391 37.9988 84.6287 37.9176C84.7173 37.8374 84.762 37.7384 84.762 37.6217V37.3801C84.737 37.3967 84.6975 37.4124 84.6454 37.4259C84.5954 37.4374 84.5412 37.4488 84.4829 37.4592C84.4245 37.4676 84.3725 37.4749 84.3287 37.4801C84.2173 37.4967 84.1287 37.529 84.062 37.5759C83.9954 37.6207 83.962 37.6874 83.962 37.7759C83.962 37.8624 83.9923 37.928 84.0537 37.9717C84.1173 38.0165 84.1964 38.0384 84.2912 38.0384Z" fill="white"/>
<path d="M88.6049 36.8134L88.034 36.8509C88.0174 36.779 87.9768 36.7165 87.9132 36.6634C87.8486 36.6113 87.7632 36.5842 87.6549 36.5842C87.557 36.5842 87.4757 36.6051 87.409 36.6467C87.3424 36.6863 87.309 36.7405 87.309 36.8092C87.309 36.8624 87.3299 36.9082 87.3715 36.9467C87.4153 36.9832 87.4903 37.0124 87.5965 37.0342L88.0049 37.1176C88.4382 37.2072 88.6549 37.4092 88.6549 37.7259C88.6549 37.8759 88.6111 38.0072 88.5257 38.1176C88.4393 38.229 88.3215 38.3165 88.1715 38.3801C88.0215 38.4405 87.8476 38.4717 87.6507 38.4717C87.3528 38.4717 87.1153 38.4092 86.9382 38.2842C86.7632 38.1592 86.6601 37.9884 86.6299 37.7717L87.2465 37.7384C87.2653 37.8332 87.3101 37.904 87.3799 37.9509C87.4518 37.9957 87.5434 38.0176 87.6549 38.0176C87.7632 38.0176 87.8507 37.9967 87.9174 37.9551C87.9861 37.9113 88.0215 37.8551 88.0215 37.7884C88.0184 37.678 87.9215 37.604 87.7299 37.5676L87.3424 37.4884C86.9059 37.403 86.6882 37.1874 86.6882 36.8426C86.6882 36.6259 86.7757 36.4551 86.9507 36.3301C87.1257 36.2051 87.357 36.1426 87.6465 36.1426C87.9299 36.1426 88.1528 36.204 88.3174 36.3259C88.4809 36.4457 88.5768 36.6082 88.6049 36.8134Z" fill="white"/>
<path d="M90.277 39.3052C90.1874 39.3052 90.1114 39.2969 90.0479 39.2802C89.9864 39.2656 89.9374 39.251 89.902 39.2344L90.0437 38.751C90.1541 38.7844 90.2479 38.7927 90.3229 38.776C90.3979 38.7615 90.4572 38.7031 90.502 38.601L90.5437 38.4927L89.7354 36.1719H90.3937L90.8604 37.826H90.8812L91.352 36.1719H92.0145L91.1354 38.6844C91.0708 38.8646 90.9697 39.0135 90.8312 39.1302C90.6916 39.2469 90.5072 39.3052 90.277 39.3052Z" fill="white"/>
<path d="M93.9438 35.4219L93.8855 37.526H93.3521L93.2896 35.4219H93.9438ZM93.6188 38.4635C93.5209 38.4635 93.4376 38.4302 93.3688 38.3635C93.299 38.2948 93.2646 38.2115 93.2646 38.1135C93.2646 38.0167 93.299 37.9344 93.3688 37.8677C93.4376 37.799 93.5209 37.7635 93.6188 37.7635C93.7126 37.7635 93.7949 37.799 93.8646 37.8677C93.9334 37.9344 93.9699 38.0167 93.973 38.1135C93.9699 38.2115 93.9334 38.2948 93.8646 38.3635C93.7949 38.4302 93.7126 38.4635 93.6188 38.4635Z" fill="white"/>
</g>
<defs>
<clipPath id="clip0_447_3944">
<rect width="100" height="40" fill="white"/>
</clipPath>
</defs>
</svg>
