<svg width="24" height="24" id='img' viewBox="0 0 24 24" fill="currentColor" xmlns="http://www.w3.org/2000/svg">
<path opacity="0.4" d="M13.89 2.87999L9.19999 2.13999C5.28999 1.52999 3.47999 2.84999 2.85999 6.75999L2.11999 11.45C1.71999 14.01 2.13999 15.67 3.58999 16.68C4.34999 17.22 5.38999 17.58 6.73999 17.79L11.43 18.53C15.34 19.14 17.15 17.82 17.77 13.91L18.5 9.21999C18.62 8.44999 18.67 7.75999 18.63 7.14999C18.5 4.64999 17.03 3.36999 13.89 2.87999ZM8.23999 9.34999C7.06999 9.34999 6.11999 8.39999 6.11999 7.23999C6.11999 6.06999 7.06999 5.11999 8.23999 5.11999C9.39999 5.11999 10.35 6.06999 10.35 7.23999C10.35 8.39999 9.39999 9.34999 8.23999 9.34999Z" fill="currentColor"/>
<path d="M20.5001 13.47L19.0001 17.98C17.7501 21.74 15.7501 22.74 11.9901 21.49L7.48009 19.99C5.21009 19.24 3.95009 18.2 3.59009 16.68C4.35009 17.22 5.39009 17.58 6.74009 17.79L11.4301 18.53C15.3401 19.14 17.1501 17.82 17.7701 13.91L18.5001 9.21999C18.6201 8.44999 18.6701 7.75999 18.6301 7.14999C21.0201 8.41999 21.5401 10.34 20.5001 13.47Z" fill="currentColor"/>
<path d="M10.3501 7.24C10.3501 8.39999 9.40012 9.35 8.24012 9.35C7.07012 9.35 6.12012 8.39999 6.12012 7.24C6.12012 6.07 7.07012 5.12 8.24012 5.12C9.40012 5.12 10.3501 6.07 10.3501 7.24Z" fill="currentColor"/>
</svg>
