<svg id="img" viewBox="0 0 24 25" fill="none" xmlns="http://www.w3.org/2000/svg">
<g id="vuesax/outline/notification">
<g id="notification">
<path id="Vector" d="M12.0199 21.4205C9.68987 21.4205 7.35987 21.0505 5.14987 20.3105C4.30987 20.0205 3.66987 19.4305 3.38987 18.6605C3.09987 17.8905 3.19987 17.0405 3.65987 16.2805L4.80987 14.3705C5.04987 13.9705 5.26987 13.1705 5.26987 12.7005V9.81055C5.26987 6.09055 8.29987 3.06055 12.0199 3.06055C15.7399 3.06055 18.7699 6.09055 18.7699 9.81055V12.7005C18.7699 13.1605 18.9899 13.9705 19.2299 14.3805L20.3699 16.2805C20.7999 17.0005 20.8799 17.8705 20.5899 18.6605C20.2999 19.4505 19.6699 20.0505 18.8799 20.3105C16.6799 21.0505 14.3499 21.4205 12.0199 21.4205ZM12.0199 4.56055C9.12987 4.56055 6.76987 6.91055 6.76987 9.81055V12.7005C6.76987 13.4305 6.46987 14.5105 6.09987 15.1405L4.94987 17.0505C4.72987 17.4205 4.66987 17.8105 4.79987 18.1405C4.91987 18.4805 5.21987 18.7405 5.62987 18.8805C9.80987 20.2805 14.2399 20.2805 18.4199 18.8805C18.7799 18.7605 19.0599 18.4905 19.1899 18.1305C19.3199 17.7705 19.2899 17.3805 19.0899 17.0505L17.9399 15.1405C17.5599 14.4905 17.2699 13.4205 17.2699 12.6905V9.81055C17.2699 6.91055 14.9199 4.56055 12.0199 4.56055Z" fill="currentColor"/>
<path id="Vector_2" d="M13.8801 4.83031C13.8101 4.83031 13.7401 4.82031 13.6701 4.80031C13.3801 4.72031 13.1001 4.66031 12.8301 4.62031C11.9801 4.51031 11.1601 4.57031 10.3901 4.80031C10.1101 4.89031 9.81011 4.80031 9.62011 4.59031C9.43011 4.38031 9.37011 4.08031 9.48011 3.81031C9.89011 2.76031 10.8901 2.07031 12.0301 2.07031C13.1701 2.07031 14.1701 2.75031 14.5801 3.81031C14.6801 4.08031 14.6301 4.38031 14.4401 4.59031C14.2901 4.75031 14.0801 4.83031 13.8801 4.83031Z" fill="currentColor"/>
<path id="Vector_3" d="M12.02 23.7012C11.03 23.7012 10.07 23.3012 9.37002 22.6012C8.67002 21.9012 8.27002 20.9412 8.27002 19.9512H9.77002C9.77002 20.5412 10.01 21.1212 10.43 21.5412C10.85 21.9612 11.43 22.2012 12.02 22.2012C13.26 22.2012 14.27 21.1912 14.27 19.9512H15.77C15.77 22.0212 14.09 23.7012 12.02 23.7012Z" fill="currentColor"/>
</g>
</g>
</svg>
