<svg width="25" id="img" height="25" viewBox="0 0 25 25" fill="none" xmlns="http://www.w3.org/2000/svg">
<path d="M3.28064 18.5879V9.58789C3.28064 9.05746 3.49135 8.54875 3.86643 8.17368C4.2415 7.7986 4.75021 7.58789 5.28064 7.58789H6.21064C6.53982 7.58794 6.86393 7.50673 7.15421 7.35148C7.44448 7.19623 7.69194 6.97172 7.87464 6.69789L8.68664 5.47789C8.86934 5.20406 9.1168 4.97956 9.40707 4.8243C9.69735 4.66905 10.0215 4.58784 10.3506 4.58789H14.2106C14.5398 4.58784 14.8639 4.66905 15.1542 4.8243C15.4445 4.97956 15.6919 5.20406 15.8746 5.47789L16.6866 6.69789C16.8693 6.97172 17.1168 7.19623 17.4071 7.35148C17.6973 7.50673 18.0215 7.58794 18.3506 7.58789H19.2806C19.8111 7.58789 20.3198 7.7986 20.6949 8.17368C21.0699 8.54875 21.2806 9.05746 21.2806 9.58789V18.5879C21.2806 19.1183 21.0699 19.627 20.6949 20.0021C20.3198 20.3772 19.8111 20.5879 19.2806 20.5879H5.28064C4.75021 20.5879 4.2415 20.3772 3.86643 20.0021C3.49135 19.627 3.28064 19.1183 3.28064 18.5879Z" stroke="currentColor" stroke-width="2" stroke-linecap="round" stroke-linejoin="round"/>
<path d="M12.2806 16.5879C13.9375 16.5879 15.2806 15.2447 15.2806 13.5879C15.2806 11.931 13.9375 10.5879 12.2806 10.5879C10.6238 10.5879 9.28064 11.931 9.28064 13.5879C9.28064 15.2447 10.6238 16.5879 12.2806 16.5879Z" stroke="currentColor" stroke-width="2" stroke-linecap="round" stroke-linejoin="round"/>
</svg>
