<svg width="20" id='img' height="20" viewBox="0 0 20 20" fill="none" xmlns="http://www.w3.org/2000/svg">
<path d="M0.833328 8.77133L8.74937 2.90859C9.48497 2.3638 10.515 2.3638 11.2506 2.90859L19.1667 8.77133M3.88888 6.50834V15.5603C3.88888 16.6316 4.8009 17.5 5.92592 17.5H6.94444H13.0555H14.0741C15.1991 17.5 16.1111 16.6316 16.1111 15.5603V6.50834M7.96296 17.5V11.6809C7.96296 11.1453 8.41896 10.711 8.98148 10.711H11.0185C11.581 10.711 12.037 11.1453 12.037 11.6809V17.5" stroke="currentColor" stroke-width="1.5" stroke-linecap="round"/>
<path d="M0.833328 8.77133L8.74937 2.90859C9.48497 2.3638 10.515 2.3638 11.2506 2.90859L19.1667 8.77133M3.88888 6.50834V15.5603C3.88888 16.6316 4.8009 17.5 5.92592 17.5H6.94444H13.0555H14.0741C15.1991 17.5 16.1111 16.6316 16.1111 15.5603V6.50834M7.96296 17.5V11.6809C7.96296 11.1453 8.41896 10.711 8.98148 10.711H11.0185C11.581 10.711 12.037 11.1453 12.037 11.6809V17.5" stroke="currentColor" stroke-width="1.5" stroke-linecap="round"/>
</svg>
