<svg width="25" id='img' height="24" viewBox="0 0 25 24" fill="currentColor" xmlns="http://www.w3.org/2000/svg">
<g id="external link">
<path id="Icon" d="M20.665 10C20.665 10.4612 21.0388 10.835 21.5 10.835C21.9612 10.835 22.335 10.4612 22.335 10H20.665ZM14.5 2.165C14.0388 2.165 13.665 2.53884 13.665 3C13.665 3.46116 14.0388 3.835 14.5 3.835V2.165ZM21.3474 3.76441L22.0914 3.38533V3.38533L21.3474 3.76441ZM20.7356 3.15259L21.1147 2.4086V2.4086L20.7356 3.15259ZM20.6904 4.99043C21.0165 4.66435 21.0165 4.13565 20.6904 3.80957C20.3643 3.48348 19.8357 3.48348 19.5096 3.80957L20.6904 4.99043ZM11.9096 11.4096C11.5835 11.7357 11.5835 12.2643 11.9096 12.5904C12.2357 12.9165 12.7643 12.9165 13.0904 12.5904L11.9096 11.4096ZM5.3614 20.6284L5.74048 19.8844H5.74048L5.3614 20.6284ZM3.87157 19.1386L3.12758 19.5177H3.12758L3.87157 19.1386ZM18.1284 19.1386L17.3844 18.7595L18.1284 19.1386ZM16.6386 20.6284L16.2595 19.8844L16.6386 20.6284ZM5.3614 6.37157L4.98231 5.62758L5.3614 6.37157ZM3.87157 7.8614L3.12758 7.48231L3.87157 7.8614ZM11 6.835C11.4612 6.835 11.835 6.46116 11.835 6C11.835 5.53884 11.4612 5.165 11 5.165V6.835ZM19.335 13.5C19.335 13.0388 18.9612 12.665 18.5 12.665C18.0388 12.665 17.665 13.0388 17.665 13.5H19.335ZM22.335 10V5.24H20.665V10H22.335ZM19.26 2.165H14.5V3.835H19.26V2.165ZM22.335 5.24C22.335 4.86174 22.3356 4.52783 22.3132 4.25249C22.2899 3.9674 22.2377 3.6724 22.0914 3.38533L20.6034 4.14349C20.6097 4.1559 20.6338 4.20666 20.6487 4.38848C20.6644 4.58004 20.665 4.83419 20.665 5.24H22.335ZM19.26 3.835C19.6658 3.835 19.92 3.83565 20.1115 3.8513C20.2933 3.86616 20.3441 3.89026 20.3565 3.89658L21.1147 2.4086C20.8276 2.26233 20.5326 2.21014 20.2475 2.18685C19.9722 2.16435 19.6383 2.165 19.26 2.165V3.835ZM22.0914 3.38533C21.8771 2.96479 21.5352 2.62288 21.1147 2.4086L20.3565 3.89658C20.4628 3.95075 20.5492 4.03718 20.6034 4.1435L22.0914 3.38533ZM19.5096 3.80957L11.9096 11.4096L13.0904 12.5904L20.6904 4.99043L19.5096 3.80957ZM13.0455 20.165H8.95455V21.835H13.0455V20.165ZM4.335 15.5455V11.4545H2.665V15.5455H4.335ZM8.95455 20.165C7.98613 20.165 7.31004 20.1644 6.78346 20.1213C6.26662 20.0791 5.96777 20.0002 5.74048 19.8844L4.98231 21.3724C5.48427 21.6282 6.02735 21.7351 6.64746 21.7858C7.25783 21.8356 8.01369 21.835 8.95455 21.835V20.165ZM2.665 15.5455C2.665 16.4863 2.66435 17.2422 2.71422 17.8525C2.76488 18.4726 2.87182 19.0157 3.12758 19.5177L4.61556 18.7595C4.49975 18.5322 4.4209 18.2334 4.37867 17.7165C4.33565 17.19 4.335 16.5139 4.335 15.5455H2.665ZM5.74048 19.8844C5.25613 19.6377 4.86235 19.2439 4.61556 18.7595L3.12758 19.5177C3.53447 20.3163 4.18374 20.9655 4.98231 21.3724L5.74048 19.8844ZM17.665 15.5455C17.665 16.5139 17.6644 17.19 17.6213 17.7165C17.5791 18.2334 17.5003 18.5322 17.3844 18.7595L18.8724 19.5177C19.1282 19.0157 19.2351 18.4726 19.2858 17.8525C19.3356 17.2422 19.335 16.4863 19.335 15.5455H17.665ZM13.0455 21.835C13.9863 21.835 14.7422 21.8356 15.3525 21.7858C15.9726 21.7351 16.5157 21.6282 17.0177 21.3724L16.2595 19.8844C16.0322 20.0002 15.7334 20.0791 15.2165 20.1213C14.69 20.1644 14.0139 20.165 13.0455 20.165V21.835ZM17.3844 18.7595C17.1377 19.2439 16.7439 19.6377 16.2595 19.8844L17.0177 21.3724C17.8163 20.9655 18.4655 20.3163 18.8724 19.5177L17.3844 18.7595ZM8.95455 5.165C8.01369 5.165 7.25783 5.16435 6.64747 5.21422C6.02736 5.26488 5.48427 5.37182 4.98231 5.62758L5.74048 7.11556C5.96777 6.99975 6.26662 6.9209 6.78346 6.87867C7.31004 6.83565 7.98613 6.835 8.95455 6.835V5.165ZM4.335 11.4545C4.335 10.4861 4.33565 9.81004 4.37867 9.28346C4.4209 8.76662 4.49975 8.46777 4.61556 8.24048L3.12758 7.48231C2.87182 7.98427 2.76488 8.52736 2.71422 9.14747C2.66435 9.75783 2.665 10.5137 2.665 11.4545H4.335ZM4.98231 5.62758C4.18374 6.03447 3.53447 6.68374 3.12758 7.48231L4.61556 8.24048C4.86235 7.75613 5.25613 7.36235 5.74048 7.11556L4.98231 5.62758ZM8.95455 6.835H11V5.165H8.95455V6.835ZM17.665 13.5V15.5455H19.335V13.5H17.665Z" fill="currentColor"/>
</g>
</svg>
