<svg id='img' viewBox="0 0 32 32" fill="none" xmlns="http://www.w3.org/2000/svg">
<rect width="32" height="32" fill="#1E1E1E"/>
<g id="Section 1">
<path d="M-472 -790C-472 -791.105 -471.105 -792 -470 -792H2596C2597.1 -792 2598 -791.105 2598 -790V1969C2598 1970.1 2597.1 1971 2596 1971H-470C-471.105 1971 -472 1970.1 -472 1969V-790Z" fill="#404040"/>
<path d="M-470 -791H2596V-793H-470V-791ZM2597 -790V1969H2599V-790H2597ZM2596 1970H-470V1972H2596V1970ZM-471 1969V-790H-473V1969H-471ZM-470 1970C-470.552 1970 -471 1969.55 -471 1969H-473C-473 1970.66 -471.657 1972 -470 1972V1970ZM2597 1969C2597 1969.55 2596.55 1970 2596 1970V1972C2597.66 1972 2599 1970.66 2599 1969H2597ZM2596 -791C2596.55 -791 2597 -790.552 2597 -790H2599C2599 -791.657 2597.66 -793 2596 -793V-791ZM-470 -793C-471.657 -793 -473 -791.657 -473 -790H-471C-471 -790.552 -470.552 -791 -470 -791V-793Z" fill="white" fill-opacity="0.1"/>
<g id="Dashboard">
<rect width="1440" height="1389" transform="translate(-392 -712)" fill="#FAFBFC"/>
<g id="Desktop - 6">
<g id="Frame 162899">
<rect x="-79.5" y="-125.5" width="1095" height="281" rx="9.5" fill="white"/>
<rect x="-79.5" y="-125.5" width="1095" height="281" rx="9.5" stroke="#EAEBF0"/>
<g id="Frame 162900">
<g id="Frame 162895">
<rect x="-47.5" y="-31.5" width="335" height="95" rx="4.5" stroke="#EAEBF0"/>
<g id=".Icon placeholder">
<rect x="-15.5" y="-15.5" width="63" height="63" rx="31.5" fill="#E8EFFD"/>
<rect x="-15.5" y="-15.5" width="63" height="63" rx="31.5" stroke="#437EF7"/>
<g id="eye">
<path id="Vector" d="M20.7732 15.9999C20.7732 18.6399 18.6399 20.7732 15.9999 20.7732C13.3599 20.7732 11.2266 18.6399 11.2266 15.9999C11.2266 13.3599 13.3599 11.2266 15.9999 11.2266C18.6399 11.2266 20.7732 13.3599 20.7732 15.9999Z" stroke="#437EF7" stroke-width="2" stroke-linecap="round" stroke-linejoin="round"/>
<path id="Vector_2" d="M15.9998 27.0266C20.7065 27.0266 25.0931 24.2533 28.1465 19.4533C29.3465 17.5733 29.3465 14.4133 28.1465 12.5333C25.0931 7.73329 20.7065 4.95996 15.9998 4.95996C11.2931 4.95996 6.90646 7.73329 3.85312 12.5333C2.65312 14.4133 2.65312 17.5733 3.85312 19.4533C6.90646 24.2533 11.2931 27.0266 15.9998 27.0266Z" stroke="#437EF7" stroke-width="2" stroke-linecap="round" stroke-linejoin="round"/>
</g>
</g>
</g>
</g>
</g>
</g>
</g>
</g>
</svg>
