<svg width="22" id='img' height="22" viewBox="0 0 22 22" fill="none" xmlns="http://www.w3.org/2000/svg">
<g id="Logo">
<path id="Vector" d="M21.7826 11.2527C21.7826 10.505 21.7219 9.7532 21.5926 9.01758H11.217V13.2535H17.1586C16.9121 14.6196 16.1199 15.8282 14.9598 16.5961V19.3446H18.5046C20.5862 17.4287 21.7826 14.5994 21.7826 11.2527Z" fill="#4285F4"/>
<path id="Vector_2" d="M11.2176 22.0001C14.1843 22.0001 16.6862 21.026 18.5091 19.3445L14.9644 16.5961C13.9782 17.267 12.705 17.647 11.2216 17.647C8.35187 17.647 5.91865 15.7109 5.0456 13.1079H1.3877V15.9413C3.25505 19.6558 7.05847 22.0001 11.2176 22.0001Z" fill="#34A853"/>
<path id="Vector_3" d="M5.04152 13.1082C4.58075 11.7421 4.58075 10.2628 5.04152 8.8966V6.06323H1.38766C-0.172513 9.17144 -0.172513 12.8334 1.38766 15.9416L5.04152 13.1082Z" fill="#FBBC04"/>
<path id="Vector_4" d="M11.2176 4.35361C12.7858 4.32936 14.3015 4.91948 15.4373 6.0027L18.5778 2.86215C16.5892 0.994802 13.9499 -0.031838 11.2176 0.000497137C7.05847 0.000497137 3.25505 2.34479 1.3877 6.06333L5.04156 8.89669C5.91057 6.28968 8.34783 4.35361 11.2176 4.35361Z" fill="#EA4335"/>
</g>
</svg>
