<svg xmlns="http://www.w3.org/2000/svg" id="img" width="48" height="48" viewBox="0 0 48 48" fill="none">
  <path d="M20 10L24 6M16 32L32 16M24 42L28 38M33 38C34.3261 38 35.5979 37.4732 36.5355 36.5355C37.4732 35.5979 38 34.3261 38 33C38 31.6739 37.4732 30.4021 36.5355 29.4645C35.5979 28.5268 34.3261 28 33 28C31.6739 28 30.4021 28.5268 29.4645 29.4645C28.5268 30.4021 28 31.6739 28 33C28 34.3261 28.5268 35.5979 29.4645 36.5355C30.4021 37.4732 31.6739 38 33 38ZM15 20C16.3261 20 17.5979 19.4732 18.5355 18.5355C19.4732 17.5979 20 16.3261 20 15C20 13.6739 19.4732 12.4021 18.5355 11.4645C17.5979 10.5268 16.3261 10 15 10C13.6739 10 12.4021 10.5268 11.4645 11.4645C10.5268 12.4021 10 13.6739 10 15C10 16.3261 10.5268 17.5979 11.4645 18.5355C12.4021 19.4732 13.6739 20 15 20ZM11 42C12.3261 42 13.5979 41.4732 14.5355 40.5355C15.4732 39.5979 16 38.3261 16 37C16 35.6739 15.4732 34.4021 14.5355 33.4645C13.5979 32.5268 12.3261 32 11 32C9.67392 32 8.40215 32.5268 7.46447 33.4645C6.52678 34.4021 6 35.6739 6 37C6 38.3261 6.52678 39.5979 7.46447 40.5355C8.40215 41.4732 9.67392 42 11 42ZM37 16C38.3261 16 39.5979 15.4732 40.5355 14.5355C41.4732 13.5979 42 12.3261 42 11C42 9.67392 41.4732 8.40215 40.5355 7.46447C39.5979 6.52678 38.3261 6 37 6C35.6739 6 34.4021 6.52678 33.4645 7.46447C32.5268 8.40215 32 9.67392 32 11C32 12.3261 32.5268 13.5979 33.4645 14.5355C34.4021 15.4732 35.6739 16 37 16Z" stroke="#272D37" stroke-width="2" stroke-linecap="round" stroke-linejoin="round"/>
</svg>