<svg id='img' viewBox="0 0 20 20" fill="none" xmlns="http://www.w3.org/2000/svg">
<path d="M0.833984 8.77133L8.75003 2.90859C9.48563 2.3638 10.5157 2.3638 11.2513 2.90859L19.1673 8.77133M3.88954 6.50834V15.5603C3.88954 16.6316 4.80155 17.5 5.92658 17.5H6.94509H13.0562H14.0747C15.1997 17.5 16.1118 16.6316 16.1118 15.5603V6.50834M7.96361 17.5V11.6809C7.96361 11.1453 8.41962 10.711 8.98213 10.711H11.0192C11.5817 10.711 12.0377 11.1453 12.0377 11.6809V17.5" stroke="currentColor" stroke-width="1.5" stroke-linecap="round"/>
<path d="M0.833984 8.77133L8.75003 2.90859C9.48563 2.3638 10.5157 2.3638 11.2513 2.90859L19.1673 8.77133M3.88954 6.50834V15.5603C3.88954 16.6316 4.80155 17.5 5.92658 17.5H6.94509H13.0562H14.0747C15.1997 17.5 16.1118 16.6316 16.1118 15.5603V6.50834M7.96361 17.5V11.6809C7.96361 11.1453 8.41962 10.711 8.98213 10.711H11.0192C11.5817 10.711 12.0377 11.1453 12.0377 11.6809V17.5" stroke="currentColor" stroke-width="1.5" stroke-linecap="round"/>
</svg>
