<svg id="img" xmlns="http://www.w3.org/2000/svg" width="20" height="20" viewBox="0 0 20 20" fill="none">
  <path d="M18.165 8C18.165 8.46116 18.5388 8.835 19 8.835C19.4612 8.835 19.835 8.46116 19.835 8H18.165ZM12 0.165C11.5388 0.165 11.165 0.538842 11.165 1C11.165 1.46116 11.5388 1.835 12 1.835V0.165ZM18.8474 1.76441L19.5914 1.38533V1.38533L18.8474 1.76441ZM18.2356 1.15259L18.6147 0.408601V0.4086L18.2356 1.15259ZM18.1904 2.99043C18.5165 2.66435 18.5165 2.13565 18.1904 1.80957C17.8643 1.48348 17.3357 1.48348 17.0096 1.80957L18.1904 2.99043ZM9.40957 9.40957C9.08348 9.73565 9.08348 10.2643 9.40957 10.5904C9.73565 10.9165 10.2643 10.9165 10.5904 10.5904L9.40957 9.40957ZM2.8614 18.6284L3.24048 17.8844H3.24048L2.8614 18.6284ZM1.37157 17.1386L0.627578 17.5177H0.627578L1.37157 17.1386ZM15.6284 17.1386L14.8844 16.7595L15.6284 17.1386ZM14.1386 18.6284L13.7595 17.8844L14.1386 18.6284ZM2.8614 4.37157L2.48231 3.62758L2.8614 4.37157ZM1.37157 5.8614L0.627578 5.48231L1.37157 5.8614ZM8.5 4.835C8.96116 4.835 9.335 4.46116 9.335 4C9.335 3.53884 8.96116 3.165 8.5 3.165V4.835ZM16.835 11.5C16.835 11.0388 16.4612 10.665 16 10.665C15.5388 10.665 15.165 11.0388 15.165 11.5H16.835ZM19.835 8V3.24H18.165V8H19.835ZM16.76 0.165H12V1.835H16.76V0.165ZM19.835 3.24C19.835 2.86174 19.8356 2.52783 19.8132 2.25249C19.7899 1.9674 19.7377 1.6724 19.5914 1.38533L18.1034 2.14349C18.1097 2.1559 18.1338 2.20666 18.1487 2.38848C18.1644 2.58004 18.165 2.83419 18.165 3.24H19.835ZM16.76 1.835C17.1658 1.835 17.42 1.83565 17.6115 1.8513C17.7933 1.86616 17.8441 1.89026 17.8565 1.89658L18.6147 0.4086C18.3276 0.262331 18.0326 0.21014 17.7475 0.186847C17.4722 0.164351 17.1383 0.165 16.76 0.165V1.835ZM19.5914 1.38533C19.3771 0.964792 19.0352 0.622879 18.6147 0.408601L17.8565 1.89658C17.9628 1.95075 18.0492 2.03718 18.1034 2.1435L19.5914 1.38533ZM17.0096 1.80957L9.40957 9.40957L10.5904 10.5904L18.1904 2.99043L17.0096 1.80957ZM10.5455 18.165H6.45455V19.835H10.5455V18.165ZM1.835 13.5455V9.45455H0.165V13.5455H1.835ZM6.45455 18.165C5.48613 18.165 4.81004 18.1644 4.28346 18.1213C3.76662 18.0791 3.46777 18.0002 3.24048 17.8844L2.48231 19.3724C2.98427 19.6282 3.52735 19.7351 4.14746 19.7858C4.75783 19.8356 5.51369 19.835 6.45455 19.835V18.165ZM0.165 13.5455C0.165 14.4863 0.164351 15.2422 0.214219 15.8525C0.264884 16.4726 0.37182 17.0157 0.627578 17.5177L2.11556 16.7595C1.99975 16.5322 1.9209 16.2334 1.87867 15.7165C1.83565 15.19 1.835 14.5139 1.835 13.5455H0.165ZM3.24048 17.8844C2.75613 17.6376 2.36235 17.2439 2.11556 16.7595L0.627578 17.5177C1.03447 18.3163 1.68374 18.9655 2.48231 19.3724L3.24048 17.8844ZM15.165 13.5455C15.165 14.5139 15.1644 15.19 15.1213 15.7165C15.0791 16.2334 15.0002 16.5322 14.8844 16.7595L16.3724 17.5177C16.6282 17.0157 16.7351 16.4726 16.7858 15.8525C16.8356 15.2422 16.835 14.4863 16.835 13.5455H15.165ZM10.5455 19.835C11.4863 19.835 12.2422 19.8356 12.8525 19.7858C13.4726 19.7351 14.0157 19.6282 14.5177 19.3724L13.7595 17.8844C13.5322 18.0002 13.2334 18.0791 12.7165 18.1213C12.19 18.1644 11.5139 18.165 10.5455 18.165V19.835ZM14.8844 16.7595C14.6377 17.2439 14.2439 17.6376 13.7595 17.8844L14.5177 19.3724C15.3163 18.9655 15.9655 18.3163 16.3724 17.5177L14.8844 16.7595ZM6.45455 3.165C5.51369 3.165 4.75783 3.16435 4.14747 3.21422C3.52736 3.26488 2.98427 3.37182 2.48231 3.62758L3.24048 5.11556C3.46777 4.99975 3.76662 4.9209 4.28346 4.87867C4.81004 4.83565 5.48613 4.835 6.45455 4.835V3.165ZM1.835 9.45455C1.835 8.48613 1.83565 7.81004 1.87867 7.28346C1.9209 6.76662 1.99975 6.46777 2.11556 6.24048L0.627578 5.48231C0.37182 5.98427 0.264884 6.52736 0.214219 7.14747C0.164351 7.75783 0.165 8.51369 0.165 9.45455H1.835ZM2.48231 3.62758C1.68374 4.03447 1.03447 4.68374 0.627578 5.48231L2.11556 6.24048C2.36235 5.75613 2.75613 5.36235 3.24048 5.11556L2.48231 3.62758ZM6.45455 4.835H8.5V3.165H6.45455V4.835ZM15.165 11.5V13.5455H16.835V11.5H15.165Z" fill="#437EF7"/>
</svg>