<svg width="12" id="img" height="14" viewBox="0 0 12 14" fill="none" xmlns="http://www.w3.org/2000/svg">
<path fill-rule="evenodd" clip-rule="evenodd" d="M5.51862 12.5845C5.77297 12.8755 6.2241 12.8731 6.48066 12.584V12.584C7.02618 11.9593 7.51685 11.3665 7.95342 10.8027L8.3138 10.3273C9.81856 8.29983 10.5713 6.69069 10.5713 5.50136C10.5713 2.96269 8.52485 0.904785 5.9999 0.904785C3.47494 0.904785 1.42847 2.96269 1.42847 5.50136C1.42847 6.69069 2.18123 8.29983 3.68599 10.3273L4.04637 10.8027C4.52062 11.4103 5.01156 12.0043 5.51862 12.5845Z" stroke="currentColor" stroke-linecap="round" stroke-linejoin="round"/>
<path d="M5.99998 7.38081C7.05195 7.38081 7.90474 6.52802 7.90474 5.47605C7.90474 4.42408 7.05195 3.57129 5.99998 3.57129C4.94801 3.57129 4.09521 4.42408 4.09521 5.47605C4.09521 6.52802 4.94801 7.38081 5.99998 7.38081Z" stroke="currentColor" stroke-linecap="round" stroke-linejoin="round"/>
</svg>
