<svg width="20" id='img' height="20" viewBox="0 0 20 20" fill="none" xmlns="http://www.w3.org/2000/svg">
<path d="M5.91666 5.83317C5.91666 6.24738 6.25245 6.58317 6.66666 6.58317C7.08088 6.58317 7.41666 6.24738 7.41666 5.83317H5.91666ZM7.41666 14.1665C7.41666 13.7523 7.08088 13.4165 6.66666 13.4165C6.25245 13.4165 5.91666 13.7523 5.91666 14.1665H7.41666ZM7.57668 18.1515L7.91717 17.4833L7.91717 17.4833L7.57668 18.1515ZM6.84832 17.4232L6.18006 17.7636V17.7636L6.84832 17.4232ZM16.485 17.4232L17.1533 17.7636L16.485 17.4232ZM15.7566 18.1515L15.4162 17.4833L15.4162 17.4833L15.7566 18.1515ZM15.7566 1.84816L15.4162 2.51641V2.51641L15.7566 1.84816ZM16.485 2.57652L15.8168 2.91701V2.91701L16.485 2.57652ZM6.84832 2.57652L6.18006 2.23603V2.23603L6.84832 2.57652ZM7.57668 1.84816L7.23619 1.1799H7.23619L7.57668 1.84816ZM2.5 9.24984C2.08578 9.24984 1.74999 9.58562 1.74999 9.99984C1.74999 10.414 2.08578 10.7498 2.49999 10.7498L2.5 9.24984ZM11.6667 10.7498C12.0809 10.7498 12.4167 10.4141 12.4167 9.99984C12.4167 9.58562 12.0809 9.24984 11.6667 9.24984L11.6667 10.7498ZM4.69699 8.03017C4.98989 7.73727 4.98989 7.2624 4.69699 6.96951C4.4041 6.67661 3.92923 6.67661 3.63633 6.96951L4.69699 8.03017ZM2.60947 9.05703L2.07914 8.5267H2.07914L2.60947 9.05703ZM2.60947 10.9426L2.07914 11.473L2.07914 11.473L2.60947 10.9426ZM3.63633 13.0302C3.92923 13.3231 4.4041 13.3231 4.69699 13.0302C4.98989 12.7373 4.98989 12.2624 4.69699 11.9695L3.63633 13.0302ZM2.05263 9.74232L2.76592 9.97408L2.05263 9.74232ZM2.05263 10.2573L2.76592 10.0256L2.05263 10.2573ZM7.41666 5.83317V4.33317H5.91666V5.83317H7.41666ZM9.33333 2.4165H14V0.916504H9.33333V2.4165ZM15.9167 4.33317V15.6665H17.4167V4.33317H15.9167ZM14 17.5832H9.33333V19.0832H14V17.5832ZM7.41666 15.6665V14.1665H5.91666V15.6665H7.41666ZM9.33333 17.5832C8.85424 17.5832 8.54003 17.5826 8.29974 17.563C8.0682 17.544 7.97208 17.5112 7.91717 17.4833L7.23619 18.8198C7.5378 18.9734 7.85329 19.0315 8.17759 19.058C8.49314 19.0838 8.87899 19.0832 9.33333 19.0832V17.5832ZM5.91666 15.6665C5.91666 16.1208 5.91608 16.5067 5.94186 16.8222C5.96836 17.1465 6.02638 17.462 6.18006 17.7636L7.51657 17.0827C7.4886 17.0278 7.4558 16.9316 7.43688 16.7001C7.41725 16.4598 7.41666 16.1456 7.41666 15.6665H5.91666ZM7.91717 17.4833C7.74469 17.3954 7.60446 17.2551 7.51657 17.0827L6.18006 17.7636C6.41176 18.2184 6.78146 18.5881 7.23619 18.8198L7.91717 17.4833ZM15.9167 15.6665C15.9167 16.1456 15.9161 16.4598 15.8964 16.7001C15.8775 16.9316 15.8447 17.0278 15.8168 17.0827L17.1533 17.7636C17.3069 17.462 17.365 17.1465 17.3915 16.8222C17.4172 16.5067 17.4167 16.1208 17.4167 15.6665H15.9167ZM14 19.0832C14.4543 19.0832 14.8402 19.0838 15.1557 19.058C15.48 19.0315 15.7955 18.9734 16.0971 18.8198L15.4162 17.4833C15.3612 17.5112 15.2651 17.544 15.0336 17.563C14.7933 17.5826 14.4791 17.5832 14 17.5832V19.0832ZM15.8168 17.0827C15.7289 17.2551 15.5886 17.3954 15.4162 17.4833L16.0971 18.8198C16.5519 18.5881 16.9216 18.2184 17.1533 17.7636L15.8168 17.0827ZM14 2.4165C14.4791 2.4165 14.7933 2.41709 15.0336 2.43672C15.2651 2.45564 15.3612 2.48844 15.4162 2.51641L16.0971 1.1799C15.7955 1.02623 15.48 0.968198 15.1557 0.941702C14.8402 0.915921 14.4543 0.916504 14 0.916504V2.4165ZM17.4167 4.33317C17.4167 3.87884 17.4172 3.49298 17.3915 3.17743C17.365 2.85313 17.3069 2.53764 17.1533 2.23603L15.8168 2.91701C15.8447 2.97192 15.8775 3.06804 15.8964 3.29958C15.9161 3.53988 15.9167 3.85408 15.9167 4.33317H17.4167ZM15.4162 2.51641C15.5886 2.6043 15.7289 2.74453 15.8168 2.91701L17.1533 2.23603C16.9216 1.7813 16.5519 1.4116 16.0971 1.1799L15.4162 2.51641ZM7.41666 4.33317C7.41666 3.85408 7.41725 3.53988 7.43688 3.29958C7.4558 3.06804 7.4886 2.97192 7.51657 2.91701L6.18006 2.23603C6.02638 2.53764 5.96836 2.85313 5.94186 3.17743C5.91608 3.49298 5.91666 3.87884 5.91666 4.33317H7.41666ZM9.33333 0.916504C8.87899 0.916504 8.49314 0.915921 8.17759 0.941702C7.85329 0.968198 7.5378 1.02623 7.23619 1.1799L7.91717 2.51641C7.97208 2.48844 8.0682 2.45564 8.29974 2.43672C8.54003 2.41709 8.85424 2.4165 9.33333 2.4165V0.916504ZM7.51657 2.91701C7.60446 2.74453 7.74469 2.6043 7.91717 2.51641L7.23619 1.1799C6.78146 1.4116 6.41176 1.7813 6.18006 2.23603L7.51657 2.91701ZM2.49999 10.7498L11.6667 10.7498L11.6667 9.24984L2.5 9.24984L2.49999 10.7498ZM3.63633 6.96951L2.07914 8.5267L3.1398 9.58736L4.69699 8.03017L3.63633 6.96951ZM2.07914 11.473L3.63633 13.0302L4.69699 11.9695L3.1398 10.4123L2.07914 11.473ZM2.07914 8.5267C1.92289 8.68295 1.77339 8.83163 1.65872 8.96669C1.53838 9.10846 1.41303 9.28376 1.33933 9.51056L2.76592 9.97408C2.75405 10.0106 2.74212 10.0083 2.80223 9.93746C2.86803 9.85995 2.96604 9.76111 3.1398 9.58736L2.07914 8.5267ZM3.1398 10.4123C2.96605 10.2386 2.86804 10.1397 2.80223 10.0622C2.74212 9.9914 2.75405 9.98906 2.76592 10.0256L1.33933 10.4891C1.41303 10.7159 1.53838 10.8912 1.65872 11.033C1.77339 11.168 1.92288 11.3167 2.07914 11.473L3.1398 10.4123ZM1.33933 9.51056C1.23601 9.82856 1.23601 10.1711 1.33933 10.4891L2.76592 10.0256C2.76048 10.0088 2.76048 9.99082 2.76592 9.97408L1.33933 9.51056Z" fill="currentColor"/>
</svg>
