<svg width="32" id='img' height="32" viewBox="0 0 32 32" fill="none" xmlns="http://www.w3.org/2000/svg">
<path d="M27.166 22.0001V22.3323L27.4723 22.461C28.8774 23.0514 29.8327 24.4457 29.8327 26.0001C29.8327 28.1106 28.1099 29.8334 25.9993 29.8334C24.4325 29.8334 23.051 28.8789 22.4603 27.4731L22.3316 27.1667H21.9993H9.99935H9.66709L9.53839 27.4731C8.94804 28.8781 7.55378 29.8334 5.99935 29.8334C3.88882 29.8334 2.16602 28.1106 2.16602 26.0001C2.16602 24.4332 3.1205 23.0517 4.52636 22.461L4.83268 22.3323V22.0001V10.0001V9.66782L4.52636 9.53912C3.12133 8.94877 2.16602 7.55451 2.16602 6.00008C2.16602 3.88956 3.88882 2.16675 5.99935 2.16675C7.56623 2.16675 8.94769 3.12124 9.53839 4.5271L9.66709 4.83341H9.99935H21.9993H22.3316L22.4603 4.5271C23.0507 3.12206 24.4449 2.16675 25.9993 2.16675C28.1099 2.16675 29.8327 3.88956 29.8327 6.00008C29.8327 7.56697 28.8782 8.94842 27.4723 9.53912L27.166 9.66782V10.0001V22.0001ZM25.5913 22.1914L25.6491 22.1861L25.6672 22.1801H26.166V21.6801V10.3201V9.85575L25.703 9.82145C25.3836 9.79779 25.0952 9.73946 24.8087 9.6363L24.785 9.62778L24.7606 9.62168C24.6789 9.60125 24.5953 9.57236 24.5296 9.53953L24.4978 9.52364L24.4641 9.51241C24.4434 9.50551 24.4336 9.50036 24.4039 9.48469C24.3833 9.47383 24.3531 9.45792 24.303 9.43287C24.2198 9.39128 24.167 9.36423 24.1167 9.33072L24.1006 9.31997L24.0836 9.31049C23.4974 8.98222 23.0172 8.50199 22.6889 7.91578L22.6795 7.89886L22.6687 7.88273C22.6352 7.83246 22.6081 7.77964 22.5666 7.69648L22.1194 7.92008L22.5666 7.69647C22.5415 7.64639 22.5256 7.61618 22.5148 7.59556C22.4991 7.56579 22.4939 7.55601 22.487 7.5353L22.4758 7.50159L22.4599 7.46981C22.4271 7.40416 22.3982 7.32053 22.3778 7.23881L22.3717 7.2144L22.3631 7.19072C22.26 6.90419 22.2016 6.61587 22.178 6.29648L22.1437 5.83342H21.6793H10.3193H9.85633L9.82082 6.29507C9.7974 6.59961 9.73919 6.87943 9.64501 7.16197L9.63685 7.18644L9.63126 7.21162C9.61596 7.28043 9.57994 7.37597 9.52911 7.49035L9.52528 7.49896L9.52178 7.50772C9.50449 7.55093 9.47518 7.61039 9.43214 7.69648C9.39055 7.77964 9.3635 7.83246 9.32999 7.88273L9.31924 7.89886L9.30976 7.91578C8.98149 8.50199 8.50125 8.98222 7.91505 9.31049L7.89813 9.31997L7.882 9.33072C7.83173 9.36424 7.77891 9.39128 7.69574 9.43287C7.60966 9.47591 7.5502 9.50522 7.50699 9.52251L7.49823 9.52601L7.48961 9.52984C7.37524 9.58068 7.2797 9.6167 7.21088 9.63199L7.1857 9.63758L7.16124 9.64574C6.8787 9.73992 6.59888 9.79813 6.29433 9.82155L5.83268 9.85707V10.3201V21.6801V22.1417L6.29281 22.1785C6.58529 22.2019 6.86969 22.2607 7.1471 22.3451L7.15917 22.3488L7.17141 22.3518C7.25313 22.3722 7.33677 22.4011 7.40241 22.434L7.41555 22.4405L7.42905 22.4463C7.52298 22.4866 7.60382 22.5213 7.69574 22.5673C7.77891 22.6089 7.83173 22.6359 7.882 22.6694L7.89813 22.6802L7.91505 22.6897C8.50125 23.0179 8.98149 23.4982 9.30976 24.0844L9.31924 24.1013L9.32999 24.1174C9.3635 24.1677 9.39055 24.2205 9.43214 24.3037C9.47809 24.3956 9.51285 24.4764 9.55311 24.5704L9.5589 24.5839L9.56547 24.597C9.59829 24.6627 9.62718 24.7463 9.64761 24.828L9.65067 24.8403L9.65435 24.8523C9.73877 25.1297 9.79754 25.4141 9.82094 25.7066L9.85775 26.1667H10.3193H21.6793H22.1793V25.6679L22.1854 25.6498L22.1906 25.592C22.2 25.4894 22.217 25.3965 22.24 25.271C22.2436 25.2516 22.2473 25.2314 22.2511 25.2103C22.3086 24.9006 22.412 24.6011 22.563 24.3108L22.563 24.3108L22.5666 24.3037C22.6081 24.2205 22.6352 24.1677 22.6687 24.1174L22.6795 24.1013L22.6889 24.0844C23.0172 23.4982 23.4974 23.0179 24.0836 22.6897L24.1006 22.6802L24.1167 22.6694C24.167 22.6359 24.2198 22.6089 24.303 22.5673L24.303 22.5674L24.31 22.5637C24.6004 22.4127 24.8998 22.3093 25.2096 22.2519C25.2307 22.248 25.2509 22.2443 25.2702 22.2408C25.3958 22.2177 25.4887 22.2007 25.5913 22.1914Z" fill="#437EF7" stroke="#437EF7"/>
</svg>
