<svg width="20" id='img' height="20" viewBox="0 0 20 20" fill="none" xmlns="http://www.w3.org/2000/svg">
<path d="M3.70984 16.3756L3.38935 17.0537L3.38935 17.0537L3.70984 16.3756ZM3.70984 9.45805L4.03034 10.1361V10.1361L3.70984 9.45805ZM4.30122 9.34146L4.42231 8.6013L4.30122 9.34146ZM4.85271 9.69078L5.47014 9.26501L4.85271 9.69078ZM4.30122 16.4922L4.42231 17.2324L4.30122 16.4922ZM4.85271 16.1429L4.23528 15.7171L4.23527 15.7171L4.85271 16.1429ZM16.2902 16.3756L16.6107 17.0537L16.6107 17.0537L16.2902 16.3756ZM16.2902 9.45805L15.9697 10.1361V10.1361L16.2902 9.45805ZM15.6988 9.34146L15.5777 8.6013L15.6988 9.34146ZM15.1473 9.69078L14.5299 9.26501L15.1473 9.69078ZM15.6988 16.4922L15.5777 17.2324L15.6988 16.4922ZM15.1473 16.1429L15.7647 15.7171V15.7171L15.1473 16.1429ZM4.03034 15.6975C3.11617 15.2654 2.41667 14.2106 2.41667 12.9168H0.916672C0.916672 14.736 1.90296 16.3511 3.38935 17.0537L4.03034 15.6975ZM2.41667 12.9168C2.41667 11.6231 3.11617 10.5682 4.03034 10.1361L3.38935 8.77998C1.90296 9.48253 0.916672 11.0977 0.916672 12.9168H2.41667ZM5.75001 15.3335V10.5002H4.25001V15.3335H5.75001ZM4.03034 10.1361C4.09035 10.1078 4.12258 10.0927 4.14933 10.0815C4.1726 10.0718 4.17608 10.0719 4.16902 10.0736C4.15938 10.0759 4.14902 10.077 4.14291 10.0771C4.13923 10.0771 4.14911 10.0765 4.18013 10.0816L4.42231 8.6013C4.21995 8.56819 4.02415 8.56553 3.81765 8.61529C3.63993 8.65811 3.48242 8.73599 3.38935 8.77998L4.03034 10.1361ZM5.75001 10.5002C5.75001 10.1556 5.77318 9.70447 5.47014 9.26501L4.23528 10.1165C4.24007 10.1235 4.23843 10.1223 4.23621 10.1164C4.23434 10.1115 4.23651 10.1148 4.23948 10.1351C4.24283 10.158 4.24615 10.1949 4.24803 10.2583C4.24994 10.3228 4.25001 10.3977 4.25001 10.5002H5.75001ZM4.18013 10.0816C4.15807 10.078 4.14492 10.0739 4.14203 10.073C4.13851 10.0719 4.13987 10.0721 4.14604 10.0748C4.15914 10.0805 4.17969 10.0911 4.2033 10.106C4.22691 10.121 4.24523 10.1351 4.25601 10.1445C4.26109 10.1489 4.26189 10.15 4.25937 10.1473C4.25729 10.1451 4.24796 10.1349 4.23528 10.1165L5.47014 9.26501C5.33793 9.07329 5.14767 8.92862 5.00595 8.83886C4.86424 8.74909 4.65214 8.6389 4.42231 8.6013L4.18013 10.0816ZM3.38935 17.0537C3.48242 17.0977 3.63993 17.1755 3.81765 17.2184C4.02415 17.2681 4.21995 17.2655 4.42231 17.2324L4.18013 15.752C4.14911 15.7571 4.13923 15.7565 4.14291 15.7566C4.14902 15.7567 4.15938 15.7578 4.16902 15.7601C4.17608 15.7618 4.1726 15.7618 4.14932 15.7521C4.12258 15.741 4.09035 15.7259 4.03034 15.6975L3.38935 17.0537ZM4.25001 15.3335C4.25001 15.4359 4.24994 15.5108 4.24803 15.5753C4.24615 15.6388 4.24283 15.6756 4.23948 15.6986C4.23651 15.7189 4.23434 15.7222 4.23621 15.7172C4.23843 15.7114 4.24007 15.7102 4.23528 15.7171L5.47014 16.5686C5.77318 16.1292 5.75001 15.678 5.75001 15.3335H4.25001ZM4.42231 17.2324C4.65214 17.1948 4.86424 17.0846 5.00595 16.9948C5.14767 16.905 5.33793 16.7604 5.47014 16.5686L4.23527 15.7171C4.24796 15.6987 4.25729 15.6886 4.25937 15.6864C4.26189 15.6837 4.26109 15.6848 4.25601 15.6892C4.24523 15.6986 4.22691 15.7127 4.2033 15.7276C4.17969 15.7426 4.15914 15.7531 4.14604 15.7589C4.13987 15.7616 4.13851 15.7618 4.14203 15.7607C4.14492 15.7598 4.15807 15.7556 4.18013 15.752L4.42231 17.2324ZM16.6107 17.0537C18.0971 16.3511 19.0833 14.736 19.0833 12.9168H17.5833C17.5833 14.2106 16.8838 15.2654 15.9697 15.6975L16.6107 17.0537ZM19.0833 12.9168C19.0833 11.0977 18.0971 9.48253 16.6107 8.77998L15.9697 10.1361C16.8838 10.5682 17.5833 11.6231 17.5833 12.9168H19.0833ZM15.75 15.3335V10.5002H14.25V15.3335H15.75ZM16.6107 8.77998C16.5176 8.73599 16.3601 8.65811 16.1824 8.61529C15.9759 8.56553 15.7801 8.56819 15.5777 8.6013L15.8199 10.0816C15.8509 10.0765 15.8608 10.0771 15.8571 10.0771C15.851 10.077 15.8406 10.0759 15.831 10.0736C15.8239 10.0719 15.8274 10.0718 15.8507 10.0815C15.8774 10.0927 15.9097 10.1078 15.9697 10.1361L16.6107 8.77998ZM15.75 10.5002C15.75 10.3977 15.7501 10.3228 15.752 10.2583C15.7539 10.1949 15.7572 10.158 15.7605 10.1351C15.7635 10.1148 15.7657 10.1115 15.7638 10.1164C15.7616 10.1223 15.7599 10.1235 15.7647 10.1165L14.5299 9.26501C14.2268 9.70447 14.25 10.1556 14.25 10.5002H15.75ZM15.5777 8.6013C15.3479 8.6389 15.1358 8.74909 14.9941 8.83886C14.8523 8.92862 14.6621 9.07329 14.5299 9.26501L15.7647 10.1165C15.752 10.1349 15.7427 10.1451 15.7406 10.1473C15.7381 10.15 15.7389 10.1489 15.744 10.1445C15.7548 10.1351 15.7731 10.121 15.7967 10.106C15.8203 10.0911 15.8409 10.0805 15.854 10.0748C15.8601 10.0721 15.8615 10.0719 15.858 10.073C15.8551 10.0739 15.8419 10.078 15.8199 10.0816L15.5777 8.6013ZM15.9697 15.6975C15.9097 15.7259 15.8774 15.741 15.8507 15.7521C15.8274 15.7618 15.8239 15.7618 15.831 15.7601C15.8406 15.7578 15.851 15.7567 15.8571 15.7566C15.8608 15.7565 15.8509 15.7571 15.8199 15.752L15.5777 17.2324C15.7801 17.2655 15.9759 17.2681 16.1824 17.2184C16.3601 17.1755 16.5176 17.0977 16.6107 17.0537L15.9697 15.6975ZM14.25 15.3335C14.25 15.678 14.2268 16.1292 14.5299 16.5686L15.7647 15.7171C15.7599 15.7102 15.7616 15.7114 15.7638 15.7172C15.7657 15.7222 15.7635 15.7189 15.7605 15.6986C15.7572 15.6756 15.7539 15.6388 15.752 15.5753C15.7501 15.5108 15.75 15.4359 15.75 15.3335H14.25ZM15.8199 15.752C15.8419 15.7556 15.8551 15.7598 15.858 15.7607C15.8615 15.7618 15.8601 15.7616 15.854 15.7589C15.8409 15.7531 15.8203 15.7426 15.7967 15.7276C15.7731 15.7127 15.7548 15.6986 15.744 15.6892C15.7389 15.6848 15.7381 15.6837 15.7406 15.6864C15.7427 15.6886 15.752 15.6987 15.7647 15.7171L14.5299 16.5686C14.6621 16.7604 14.8523 16.905 14.9941 16.9948C15.1358 17.0846 15.3479 17.1948 15.5777 17.2324L15.8199 15.752ZM4.08334 10.0002C4.08334 6.73248 6.73232 4.0835 10 4.0835V2.5835C5.90389 2.5835 2.58334 5.90405 2.58334 10.0002H4.08334ZM10 4.0835C13.2677 4.0835 15.9167 6.73248 15.9167 10.0002H17.4167C17.4167 5.90405 14.0961 2.5835 10 2.5835V4.0835Z" fill="currentColor"/>
<path d="M3.70984 16.3756L3.38935 17.0537L3.38935 17.0537L3.70984 16.3756ZM3.70984 9.45805L4.03034 10.1361V10.1361L3.70984 9.45805ZM4.30122 9.34146L4.42231 8.6013L4.30122 9.34146ZM4.85271 9.69078L5.47014 9.26501L4.85271 9.69078ZM4.30122 16.4922L4.42231 17.2324L4.30122 16.4922ZM4.85271 16.1429L4.23528 15.7171L4.23527 15.7171L4.85271 16.1429ZM16.2902 16.3756L16.6107 17.0537L16.6107 17.0537L16.2902 16.3756ZM16.2902 9.45805L15.9697 10.1361V10.1361L16.2902 9.45805ZM15.6988 9.34146L15.5777 8.6013L15.6988 9.34146ZM15.1473 9.69078L14.5299 9.26501L15.1473 9.69078ZM15.6988 16.4922L15.5777 17.2324L15.6988 16.4922ZM15.1473 16.1429L15.7647 15.7171V15.7171L15.1473 16.1429ZM4.03034 15.6975C3.11617 15.2654 2.41667 14.2106 2.41667 12.9168H0.916672C0.916672 14.736 1.90296 16.3511 3.38935 17.0537L4.03034 15.6975ZM2.41667 12.9168C2.41667 11.6231 3.11617 10.5682 4.03034 10.1361L3.38935 8.77998C1.90296 9.48253 0.916672 11.0977 0.916672 12.9168H2.41667ZM5.75001 15.3335V10.5002H4.25001V15.3335H5.75001ZM4.03034 10.1361C4.09035 10.1078 4.12258 10.0927 4.14933 10.0815C4.1726 10.0718 4.17608 10.0719 4.16902 10.0736C4.15938 10.0759 4.14902 10.077 4.14291 10.0771C4.13923 10.0771 4.14911 10.0765 4.18013 10.0816L4.42231 8.6013C4.21995 8.56819 4.02415 8.56553 3.81765 8.61529C3.63993 8.65811 3.48242 8.73599 3.38935 8.77998L4.03034 10.1361ZM5.75001 10.5002C5.75001 10.1556 5.77318 9.70447 5.47014 9.26501L4.23528 10.1165C4.24007 10.1235 4.23843 10.1223 4.23621 10.1164C4.23434 10.1115 4.23651 10.1148 4.23948 10.1351C4.24283 10.158 4.24615 10.1949 4.24803 10.2583C4.24994 10.3228 4.25001 10.3977 4.25001 10.5002H5.75001ZM4.18013 10.0816C4.15807 10.078 4.14492 10.0739 4.14203 10.073C4.13851 10.0719 4.13987 10.0721 4.14604 10.0748C4.15914 10.0805 4.17969 10.0911 4.2033 10.106C4.22691 10.121 4.24523 10.1351 4.25601 10.1445C4.26109 10.1489 4.26189 10.15 4.25937 10.1473C4.25729 10.1451 4.24796 10.1349 4.23528 10.1165L5.47014 9.26501C5.33793 9.07329 5.14767 8.92862 5.00595 8.83886C4.86424 8.74909 4.65214 8.6389 4.42231 8.6013L4.18013 10.0816ZM3.38935 17.0537C3.48242 17.0977 3.63993 17.1755 3.81765 17.2184C4.02415 17.2681 4.21995 17.2655 4.42231 17.2324L4.18013 15.752C4.14911 15.7571 4.13923 15.7565 4.14291 15.7566C4.14902 15.7567 4.15938 15.7578 4.16902 15.7601C4.17608 15.7618 4.1726 15.7618 4.14932 15.7521C4.12258 15.741 4.09035 15.7259 4.03034 15.6975L3.38935 17.0537ZM4.25001 15.3335C4.25001 15.4359 4.24994 15.5108 4.24803 15.5753C4.24615 15.6388 4.24283 15.6756 4.23948 15.6986C4.23651 15.7189 4.23434 15.7222 4.23621 15.7172C4.23843 15.7114 4.24007 15.7102 4.23528 15.7171L5.47014 16.5686C5.77318 16.1292 5.75001 15.678 5.75001 15.3335H4.25001ZM4.42231 17.2324C4.65214 17.1948 4.86424 17.0846 5.00595 16.9948C5.14767 16.905 5.33793 16.7604 5.47014 16.5686L4.23527 15.7171C4.24796 15.6987 4.25729 15.6886 4.25937 15.6864C4.26189 15.6837 4.26109 15.6848 4.25601 15.6892C4.24523 15.6986 4.22691 15.7127 4.2033 15.7276C4.17969 15.7426 4.15914 15.7531 4.14604 15.7589C4.13987 15.7616 4.13851 15.7618 4.14203 15.7607C4.14492 15.7598 4.15807 15.7556 4.18013 15.752L4.42231 17.2324ZM16.6107 17.0537C18.0971 16.3511 19.0833 14.736 19.0833 12.9168H17.5833C17.5833 14.2106 16.8838 15.2654 15.9697 15.6975L16.6107 17.0537ZM19.0833 12.9168C19.0833 11.0977 18.0971 9.48253 16.6107 8.77998L15.9697 10.1361C16.8838 10.5682 17.5833 11.6231 17.5833 12.9168H19.0833ZM15.75 15.3335V10.5002H14.25V15.3335H15.75ZM16.6107 8.77998C16.5176 8.73599 16.3601 8.65811 16.1824 8.61529C15.9759 8.56553 15.7801 8.56819 15.5777 8.6013L15.8199 10.0816C15.8509 10.0765 15.8608 10.0771 15.8571 10.0771C15.851 10.077 15.8406 10.0759 15.831 10.0736C15.8239 10.0719 15.8274 10.0718 15.8507 10.0815C15.8774 10.0927 15.9097 10.1078 15.9697 10.1361L16.6107 8.77998ZM15.75 10.5002C15.75 10.3977 15.7501 10.3228 15.752 10.2583C15.7539 10.1949 15.7572 10.158 15.7605 10.1351C15.7635 10.1148 15.7657 10.1115 15.7638 10.1164C15.7616 10.1223 15.7599 10.1235 15.7647 10.1165L14.5299 9.26501C14.2268 9.70447 14.25 10.1556 14.25 10.5002H15.75ZM15.5777 8.6013C15.3479 8.6389 15.1358 8.74909 14.9941 8.83886C14.8523 8.92862 14.6621 9.07329 14.5299 9.26501L15.7647 10.1165C15.752 10.1349 15.7427 10.1451 15.7406 10.1473C15.7381 10.15 15.7389 10.1489 15.744 10.1445C15.7548 10.1351 15.7731 10.121 15.7967 10.106C15.8203 10.0911 15.8409 10.0805 15.854 10.0748C15.8601 10.0721 15.8615 10.0719 15.858 10.073C15.8551 10.0739 15.8419 10.078 15.8199 10.0816L15.5777 8.6013ZM15.9697 15.6975C15.9097 15.7259 15.8774 15.741 15.8507 15.7521C15.8274 15.7618 15.8239 15.7618 15.831 15.7601C15.8406 15.7578 15.851 15.7567 15.8571 15.7566C15.8608 15.7565 15.8509 15.7571 15.8199 15.752L15.5777 17.2324C15.7801 17.2655 15.9759 17.2681 16.1824 17.2184C16.3601 17.1755 16.5176 17.0977 16.6107 17.0537L15.9697 15.6975ZM14.25 15.3335C14.25 15.678 14.2268 16.1292 14.5299 16.5686L15.7647 15.7171C15.7599 15.7102 15.7616 15.7114 15.7638 15.7172C15.7657 15.7222 15.7635 15.7189 15.7605 15.6986C15.7572 15.6756 15.7539 15.6388 15.752 15.5753C15.7501 15.5108 15.75 15.4359 15.75 15.3335H14.25ZM15.8199 15.752C15.8419 15.7556 15.8551 15.7598 15.858 15.7607C15.8615 15.7618 15.8601 15.7616 15.854 15.7589C15.8409 15.7531 15.8203 15.7426 15.7967 15.7276C15.7731 15.7127 15.7548 15.6986 15.744 15.6892C15.7389 15.6848 15.7381 15.6837 15.7406 15.6864C15.7427 15.6886 15.752 15.6987 15.7647 15.7171L14.5299 16.5686C14.6621 16.7604 14.8523 16.905 14.9941 16.9948C15.1358 17.0846 15.3479 17.1948 15.5777 17.2324L15.8199 15.752ZM4.08334 10.0002C4.08334 6.73248 6.73232 4.0835 10 4.0835V2.5835C5.90389 2.5835 2.58334 5.90405 2.58334 10.0002H4.08334ZM10 4.0835C13.2677 4.0835 15.9167 6.73248 15.9167 10.0002H17.4167C17.4167 5.90405 14.0961 2.5835 10 2.5835V4.0835Z" fill="currentColor"/>
</svg>
