<svg width="24" id='img' height="25" viewBox="0 0 24 25" fill="none" xmlns="http://www.w3.org/2000/svg">
<g id="tick-square">
<g id="Vector">
<path d="M16.19 2.89062H7.81C4.17 2.89062 2 5.06062 2 8.70062V17.0706C2 20.7206 4.17 22.8906 7.81 22.8906H16.18C19.82 22.8906 21.99 20.7206 21.99 17.0806V8.70062C22 5.06062 19.83 2.89062 16.19 2.89062ZM16.78 10.5906L11.11 16.2606C10.97 16.4006 10.78 16.4806 10.58 16.4806C10.38 16.4806 10.19 16.4006 10.05 16.2606L7.22 13.4306C6.93 13.1406 6.93 12.6606 7.22 12.3706C7.51 12.0806 7.99 12.0806 8.28 12.3706L10.58 14.6706L15.72 9.53063C16.01 9.24063 16.49 9.24063 16.78 9.53063C17.07 9.82063 17.07 10.2906 16.78 10.5906Z" fill="#006AFF"/>
<path d="M16.19 1.89062H7.81C5.79113 1.89062 4.06014 2.49627 2.83289 3.72352C1.60564 4.95077 1 6.68175 1 8.70062V17.0706C1 19.0938 1.60522 20.8273 2.83245 22.056C4.05983 23.285 5.79111 23.8906 7.81 23.8906H16.18C18.1989 23.8906 19.9299 23.285 21.1571 22.0577C22.3844 20.8305 22.99 19.0995 22.99 17.0806V8.70195C22.9953 6.68305 22.3925 4.95166 21.1663 3.72396C19.9401 2.49618 18.2087 1.89062 16.19 1.89062Z" stroke="#006AFF" stroke-opacity="0.2" stroke-width="2"/>
</g>
</g>
</svg>
