<svg xmlns="http://www.w3.org/2000/svg" id="img" width="49" height="48" viewBox="0 0 49 48" fill="none">
  <g clip-path="url(#clip0_3690_24900)">
    <path d="M0.667973 19.5C0.664936 15.0874 2.15862 10.8042 4.90494 7.35029C7.65126 3.89642 11.4878 1.47613 15.7877 0.484926C20.0876 -0.506283 24.5965 -0.00980222 28.5777 1.89324C32.5589 3.79628 35.7769 6.99335 37.706 10.962C40.4982 12.3232 42.9249 14.3318 44.7839 16.8206C46.6428 19.3093 47.8804 22.2061 48.3934 25.2699C48.9063 28.3336 48.68 31.4755 47.7331 34.4341C46.7862 37.3926 45.1462 40.0822 42.9497 42.2787C40.7531 44.4753 38.0636 46.1152 35.1051 47.0621C32.1465 48.009 29.0046 48.2354 25.9408 47.7224C22.8771 47.2094 19.9803 45.9719 17.4915 44.1129C15.0028 42.2539 12.9942 39.8273 11.633 37.035C8.34495 35.4344 5.57327 32.9415 3.63439 29.8409C1.69551 26.7403 0.667586 23.1569 0.667973 19.5ZM16.1 38.574C17.5322 40.4314 19.3439 41.9621 21.4143 43.0641C23.4847 44.166 25.7663 44.8139 28.1068 44.9646C30.4474 45.1152 32.7932 44.7651 34.9878 43.9377C37.1824 43.1102 39.1754 41.8244 40.8339 40.1659C42.4923 38.5075 43.7782 36.5145 44.6056 34.3199C45.4331 32.1253 45.7832 29.7795 45.6325 27.4389C45.4819 25.0983 44.834 22.8167 43.732 20.7463C42.6301 18.6759 41.0993 16.8642 39.242 15.432C39.9212 18.6133 39.7938 21.9141 38.8714 25.0336C37.9489 28.1531 36.2607 30.9922 33.9604 33.2925C31.6602 35.5927 28.821 37.2809 25.7015 38.2034C22.582 39.1259 19.2813 39.2533 16.1 38.574ZM13.901 34.767C14.99 35.217 16.139 35.55 17.333 35.757L12.911 31.335C13.118 32.529 13.451 33.675 13.901 34.767ZM21.743 35.925C22.939 35.8125 24.1191 35.5691 25.262 35.199L13.79 23.73C13.3859 24.8166 13.0885 25.9399 12.902 27.084L21.743 35.925ZM28.214 33.909C29.105 33.411 29.945 32.829 30.728 32.181L16.922 18.378C16.2663 19.153 15.6772 19.982 15.161 20.856L28.211 33.909H28.214ZM32.849 30.057C33.497 29.277 34.079 28.437 34.577 27.546L21.527 14.49C20.6515 15.0056 19.8215 15.5947 19.046 16.251L32.846 30.057H32.849ZM35.867 24.591C36.23 23.469 36.479 22.293 36.593 21.075L27.752 12.234C26.594 12.423 25.472 12.723 24.398 13.122L35.867 24.594V24.591ZM36.425 16.665C36.221 15.4884 35.889 14.3375 35.435 13.233C34.3305 12.7789 33.1796 12.4469 32.003 12.243L36.425 16.665Z" fill="#272D37" stroke="#272D37"/>
  </g>
  <defs>
    <clipPath id="clip0_3690_24900">
      <rect width="48" height="48" fill="white" transform="translate(0.667969)"/>
    </clipPath>
  </defs>
</svg>