<svg id='img' viewBox="0 0 48 48" fill="none" xmlns="http://www.w3.org/2000/svg">
<rect x="0.5" y="0.5" width="47" height="47" rx="23.5" fill="#F5FAFF"/>
<rect x="0.5" y="0.5" width="47" height="47" rx="23.5" stroke="#437EF7"/>
<path d="M21.4993 32.3332H26.4993C30.666 32.3332 32.3327 30.6665 32.3327 26.4998V21.4998C32.3327 17.3332 30.666 15.6665 26.4993 15.6665H21.4993C17.3327 15.6665 15.666 17.3332 15.666 21.4998V26.4998C15.666 30.6665 17.3327 32.3332 21.4993 32.3332Z" stroke="#437EF7" stroke-width="1.5" stroke-linecap="round" stroke-linejoin="round"/>
<path d="M21.5007 22.3333C22.4211 22.3333 23.1673 21.5871 23.1673 20.6667C23.1673 19.7462 22.4211 19 21.5007 19C20.5802 19 19.834 19.7462 19.834 20.6667C19.834 21.5871 20.5802 22.3333 21.5007 22.3333Z" stroke="#437EF7" stroke-width="1.5" stroke-linecap="round" stroke-linejoin="round"/>
<path d="M16.2246 29.7918L20.3329 27.0335C20.9913 26.5918 21.9413 26.6418 22.5329 27.1501L22.8079 27.3918C23.4579 27.9501 24.5079 27.9501 25.1579 27.3918L28.6246 24.4168C29.2746 23.8585 30.3246 23.8585 30.9746 24.4168L32.3329 25.5835" stroke="#437EF7" stroke-width="1.5" stroke-linecap="round" stroke-linejoin="round"/>
</svg>
