<svg xmlns="http://www.w3.org/2000/svg" id="img" width="49" height="48" viewBox="0 0 49 48" fill="none">
  <path d="M43.3074 39.9375C40.343 34.815 35.6893 31.2206 30.2818 29.6962C32.9108 28.3598 35.0131 26.1769 36.2497 23.4995C37.4863 20.8221 37.7852 17.8062 37.0981 14.9382C36.411 12.0702 34.7779 9.51712 32.4623 7.69074C30.1467 5.86436 27.2835 4.87109 24.3343 4.87109C21.3851 4.87109 18.5218 5.86436 16.2062 7.69074C13.8906 9.51712 12.2576 12.0702 11.5705 14.9382C10.8833 17.8062 11.1822 20.8221 12.4188 23.4995C13.6554 26.1769 15.7577 28.3598 18.3868 29.6962C12.9793 31.2187 8.32552 34.8131 5.36114 39.9375C5.27974 40.0655 5.22509 40.2087 5.20046 40.3584C5.17584 40.5081 5.18175 40.6613 5.21785 40.8087C5.25395 40.956 5.31948 41.0946 5.41051 41.216C5.50154 41.3373 5.61619 41.4391 5.74755 41.515C5.87891 41.5909 6.02427 41.6395 6.17489 41.6578C6.32551 41.6761 6.47828 41.6637 6.624 41.6215C6.76971 41.5792 6.90538 41.5079 7.02282 41.4118C7.14026 41.3157 7.23706 41.1969 7.30739 41.0625C10.9093 34.8393 17.273 31.125 24.3343 31.125C31.3955 31.125 37.7593 34.8393 41.3611 41.0625C41.4315 41.1969 41.5283 41.3157 41.6457 41.4118C41.7632 41.5079 41.8988 41.5792 42.0445 41.6215C42.1903 41.6637 42.343 41.6761 42.4936 41.6578C42.6443 41.6395 42.7896 41.5909 42.921 41.515C43.0523 41.4391 43.167 41.3373 43.258 41.216C43.3491 41.0946 43.4146 40.956 43.4507 40.8087C43.4868 40.6613 43.4927 40.5081 43.4681 40.3584C43.4434 40.2087 43.3888 40.0655 43.3074 39.9375ZM13.4593 18C13.4593 15.8491 14.0971 13.7465 15.292 11.9581C16.487 10.1698 18.1854 8.77588 20.1726 7.95278C22.1597 7.12967 24.3463 6.91431 26.4559 7.33393C28.5654 7.75354 30.5032 8.78928 32.0241 10.3102C33.5449 11.8311 34.5807 13.7688 35.0003 15.8784C35.4199 17.9879 35.2046 20.1745 34.3815 22.1616C33.5584 24.1488 32.1645 25.8472 30.3761 27.0422C28.5877 28.2372 26.4851 28.875 24.3343 28.875C21.4511 28.8715 18.687 27.7246 16.6483 25.6859C14.6096 23.6472 13.4627 20.8831 13.4593 18Z" fill="#272D37"/>
</svg>