<svg id='img' viewBox="0 0 20 20" fill="none" xmlns="http://www.w3.org/2000/svg">
<g clip-path="url(#clip0_4658_1341)">
<path d="M10.834 9.29199H5.83398" stroke="currentColor" stroke-width="1.5" stroke-linecap="round" stroke-linejoin="round"/>
<path d="M1.66602 9.29121V5.44121C1.66602 3.74121 3.04102 2.36621 4.74102 2.36621H9.42435C11.1243 2.36621 12.4993 3.42454 12.4993 5.12454" stroke="currentColor" stroke-width="1.5" stroke-linecap="round" stroke-linejoin="round"/>
<path d="M14.566 10.1667C14.1493 10.5667 13.9493 11.1833 14.116 11.8166C14.3243 12.5916 15.091 13.0833 15.891 13.0833H16.666V14.2917C16.666 16.1333 15.1743 17.625 13.3327 17.625H4.99935C3.15768 17.625 1.66602 16.1333 1.66602 14.2917V8.45833C1.66602 6.61667 3.15768 5.125 4.99935 5.125H13.3327C15.166 5.125 16.666 6.625 16.666 8.45833V9.66663H15.766C15.2993 9.66663 14.8743 9.84999 14.566 10.1667Z" stroke="currentColor" stroke-width="1.5" stroke-linecap="round" stroke-linejoin="round"/>
<path d="M18.3329 10.517V12.2337C18.3329 12.7003 17.9495 13.0837 17.4745 13.0837H15.8662C14.9662 13.0837 14.1412 12.4254 14.0662 11.5254C14.0162 11.0004 14.2162 10.5087 14.5662 10.167C14.8745 9.85036 15.2995 9.66699 15.7662 9.66699H17.4745C17.9495 9.66699 18.3329 10.0503 18.3329 10.517Z" stroke="currentColor" stroke-width="1.5" stroke-linecap="round" stroke-linejoin="round"/>
</g>
<defs>
<clipPath id="clip0_4658_1341">
<rect width="20" height="20" fill="white"/>
</clipPath>
</defs>
</svg>
