<svg width="25" id='img' height="24" viewBox="0 0 25 24" fill="none" xmlns="http://www.w3.org/2000/svg">
<g id="vuesax/linear/whatsapp">
<g id="whatsapp">
<path id="Vector" d="M7.15 20.6C8.65 21.5 10.45 22 12.25 22C17.75 22 22.25 17.5 22.25 12C22.25 6.5 17.75 2 12.25 2C6.75 2 2.25 6.5 2.25 12C2.25 13.8 2.75 15.5 3.55 17L2.69044 20.306C2.49572 21.0549 3.18892 21.7317 3.93299 21.5191L7.15 20.6Z" stroke="currentColor" stroke-width="1.5" stroke-miterlimit="10" stroke-linecap="round" stroke-linejoin="round"/>
<path id="Vector_2" d="M16.75 14.8485C16.75 15.0105 16.7139 15.177 16.6373 15.339C16.5607 15.501 16.4616 15.654 16.3309 15.798C16.11 16.041 15.8667 16.2165 15.5918 16.329C15.3214 16.4415 15.0284 16.5 14.7129 16.5C14.2533 16.5 13.762 16.392 13.2437 16.1715C12.7255 15.951 12.2072 15.654 11.6934 15.2805C11.1751 14.9025 10.6839 14.484 10.2152 14.0205C9.751 13.5525 9.33187 13.062 8.95781 12.549C8.58826 12.036 8.29081 11.523 8.07449 11.0145C7.85816 10.5015 7.75 10.011 7.75 9.543C7.75 9.237 7.80408 8.9445 7.91224 8.6745C8.02041 8.4 8.19166 8.148 8.43052 7.923C8.71895 7.6395 9.03443 7.5 9.36793 7.5C9.49412 7.5 9.62031 7.527 9.73297 7.581C9.85015 7.635 9.95381 7.716 10.0349 7.833L11.0805 9.3045C11.1616 9.417 11.2202 9.5205 11.2608 9.6195C11.3013 9.714 11.3239 9.8085 11.3239 9.894C11.3239 10.002 11.2923 10.11 11.2292 10.2135C11.1706 10.317 11.085 10.425 10.9768 10.533L10.6343 10.8885C10.5848 10.938 10.5622 10.9965 10.5622 11.0685C10.5622 11.1045 10.5667 11.136 10.5757 11.172C10.5893 11.208 10.6028 11.235 10.6118 11.262C10.6929 11.4105 10.8326 11.604 11.0309 11.838C11.2337 12.072 11.45 12.3105 11.6844 12.549C11.9278 12.7875 12.1621 13.008 12.401 13.2105C12.6353 13.4085 12.8291 13.5435 12.9823 13.6245C13.0049 13.6335 13.0319 13.647 13.0635 13.6605C13.0995 13.674 13.1356 13.6785 13.1761 13.6785C13.2528 13.6785 13.3113 13.6515 13.3609 13.602L13.7034 13.2645C13.8161 13.152 13.9243 13.0665 14.0279 13.0125C14.1316 12.9495 14.2352 12.918 14.3479 12.918C14.4335 12.918 14.5237 12.936 14.6228 12.9765C14.722 13.017 14.8256 13.0755 14.9383 13.152L16.43 14.2095C16.5472 14.2905 16.6283 14.385 16.6779 14.4975C16.723 14.61 16.75 14.7225 16.75 14.8485Z" stroke="currentColor" stroke-width="1.5" stroke-miterlimit="10"/>
</g>
</g>
</svg>
