<svg width="25" id="img" height="24" viewBox="0 0 25 24" fill="none" xmlns="http://www.w3.org/2000/svg">
<g id="Car">
<path id="Union" fill-rule="evenodd" clip-rule="evenodd" d="M8.56106 5.25C8.46663 5.25 8.38026 5.30321 8.33778 5.38755L6.32886 9.37629H19.0069L16.998 5.38755C16.9555 5.30321 16.8692 5.25 16.7747 5.25H8.56106ZM6.9981 4.71282L4.60255 9.46923C3.91287 9.70398 3.41675 10.3572 3.41675 11.1263V15.6904C3.41675 16.3665 3.80012 16.953 4.36133 17.2444V18.5037C4.36133 19.4702 5.14483 20.2537 6.11133 20.2537H7.88961C8.85611 20.2537 9.63961 19.4702 9.63961 18.5037V17.4404H15.6962V18.5037C15.6962 19.4702 16.4797 20.2537 17.4462 20.2537H19.2245C20.191 20.2537 20.9745 19.4702 20.9745 18.5037V17.2444C21.5357 16.953 21.919 16.3665 21.919 15.6904V11.1263C21.919 10.3572 21.4229 9.704 20.7332 9.46924L18.3377 4.71282C18.0403 4.12245 17.4357 3.75 16.7747 3.75H8.56106C7.90005 3.75 7.29544 4.12245 6.9981 4.71282ZM19.4745 17.4404H17.1962V18.5037C17.1962 18.6418 17.3081 18.7537 17.4462 18.7537H19.2245C19.3625 18.7537 19.4745 18.6418 19.4745 18.5037V17.4404ZM8.13961 17.4404H5.86133V18.5037C5.86133 18.6418 5.97326 18.7537 6.11133 18.7537H7.88961C8.02768 18.7537 8.13961 18.6418 8.13961 18.5037V17.4404ZM5.16675 10.8763C5.02868 10.8763 4.91675 10.9882 4.91675 11.1263V15.6904C4.91675 15.8285 5.02868 15.9404 5.16675 15.9404H20.169C20.3071 15.9404 20.419 15.8285 20.419 15.6904V11.1263C20.419 10.9882 20.3071 10.8763 20.169 10.8763H5.16675ZM7.47252 14.8149C8.25503 14.8149 8.88938 14.1852 8.88938 13.4083C8.88938 12.6315 8.25503 12.0017 7.47252 12.0017C6.69001 12.0017 6.05566 12.6315 6.05566 13.4083C6.05566 14.1852 6.69001 14.8149 7.47252 14.8149ZM19.28 13.4083C19.28 14.1852 18.6457 14.8149 17.8631 14.8149C17.0806 14.8149 16.4463 14.1852 16.4463 13.4083C16.4463 12.6315 17.0806 12.0017 17.8631 12.0017C18.6457 12.0017 19.28 12.6315 19.28 13.4083Z" fill="currentColor"/>
</g>
</svg>
