<svg width="33" height="33" id="img" viewBox="0 0 33 33" fill="none" xmlns="http://www.w3.org/2000/svg">
<g id="mdi:twitter">
<path id="Vector" d="M30.2176 8.11198C29.1909 8.57865 28.0842 8.88531 26.9376 9.03198C28.1109 8.32531 29.0176 7.20531 29.4442 5.85865C28.3376 6.52531 27.1109 6.99198 25.8176 7.25865C24.7642 6.11198 23.2842 5.44531 21.6042 5.44531C18.4709 5.44531 15.9109 8.00531 15.9109 11.1653C15.9109 11.6186 15.9642 12.0586 16.0576 12.472C11.3109 12.232 7.08422 9.95198 4.27089 6.49865C3.77755 7.33865 3.49755 8.32531 3.49755 9.36531C3.49755 11.352 4.49755 13.112 6.04422 14.112C5.09755 14.112 4.21755 13.8453 3.44422 13.4453V13.4853C3.44422 16.2586 5.41755 18.5786 8.03089 19.0986C7.19185 19.3283 6.31101 19.3602 5.45755 19.192C5.81969 20.3286 6.52893 21.3232 7.48557 22.0359C8.44221 22.7486 9.59815 23.1436 10.7909 23.1653C8.76906 24.7659 6.26288 25.6311 3.68422 25.6186C3.23089 25.6186 2.77755 25.592 2.32422 25.5386C4.85755 27.1653 7.87089 28.112 11.0976 28.112C21.6042 28.112 27.3776 19.392 27.3776 11.832C27.3776 11.5786 27.3776 11.3386 27.3642 11.0853C28.4842 10.2853 29.4442 9.27198 30.2176 8.11198Z" fill="#006AFF"/>
</g>
</svg>
