<svg width="24" height="24" id='img' viewBox="0 0 24 24" fill="currentColor" xmlns="http://www.w3.org/2000/svg">
<g id="messages">
<g id="vuesax/bulk/messages">
<g id="messages_2">
<path id="Vector" opacity="0.4" d="M17.98 10.79V14.79C17.98 15.05 17.97 15.3 17.94 15.54C17.71 18.24 16.12 19.58 13.19 19.58H12.79C12.54 19.58 12.3 19.7 12.15 19.9L10.95 21.5C10.42 22.21 9.56 22.21 9.03 21.5L7.82999 19.9C7.69999 19.73 7.41 19.58 7.19 19.58H6.79001C3.60001 19.58 2 18.79 2 14.79V10.79C2 7.86001 3.35001 6.27001 6.04001 6.04001C6.28001 6.01001 6.53001 6 6.79001 6H13.19C16.38 6 17.98 7.60001 17.98 10.79Z" fill="currentColor"/>
<g id="Group">
<path id="Vector_2" d="M9.98999 14C9.42999 14 8.98999 13.55 8.98999 13C8.98999 12.45 9.43999 12 9.98999 12C10.54 12 10.99 12.45 10.99 13C10.99 13.55 10.55 14 9.98999 14Z" fill="currentColor"/>
</g>
<g id="Group_2">
<path id="Vector_3" d="M13.49 14C12.93 14 12.49 13.55 12.49 13C12.49 12.45 12.94 12 13.49 12C14.04 12 14.49 12.45 14.49 13C14.49 13.55 14.04 14 13.49 14Z" fill="currentColor"/>
</g>
<g id="Group_3">
<path id="Vector_4" d="M6.5 14C5.94 14 5.5 13.55 5.5 13C5.5 12.45 5.95 12 6.5 12C7.05 12 7.5 12.45 7.5 13C7.5 13.55 7.05 14 6.5 14Z" fill="currentColor"/>
</g>
<path id="Vector_5" d="M21.98 6.79001V10.79C21.98 13.73 20.63 15.31 17.94 15.54C17.97 15.3 17.98 15.05 17.98 14.79V10.79C17.98 7.60001 16.38 6 13.19 6H6.79004C6.53004 6 6.28004 6.01001 6.04004 6.04001C6.27004 3.35001 7.86004 2 10.79 2H17.19C20.38 2 21.98 3.60001 21.98 6.79001Z" fill="currentColor"/>
</g>
</g>
</g>
</svg>
