<svg width="33" height="33" id="img" viewBox="0 0 33 33" fill="none" xmlns="http://www.w3.org/2000/svg">
<g id="ri:instagram-fill">
<path id="Vector" d="M18.2927 2.77508C19.2656 2.77134 20.2386 2.78112 21.2113 2.80441L21.47 2.81374C21.7687 2.82441 22.0633 2.83774 22.4193 2.85374C23.838 2.92041 24.806 3.14441 25.6553 3.47374C26.5353 3.81241 27.2767 4.27108 28.018 5.01241C28.6958 5.67855 29.2204 6.48434 29.5553 7.37374C29.8847 8.22308 30.1087 9.19241 30.1753 10.6111C30.1913 10.9657 30.2047 11.2617 30.2153 11.5604L30.2233 11.8191C30.247 12.7913 30.2572 13.7639 30.254 14.7364L30.2553 15.7311V17.4777C30.2586 18.4507 30.2484 19.4237 30.2247 20.3964L30.2167 20.6551C30.206 20.9537 30.1927 21.2484 30.1767 21.6044C30.11 23.0231 29.8833 23.9911 29.5553 24.8404C29.2215 25.7308 28.6968 26.5372 28.018 27.2031C27.3513 27.8808 26.5451 28.4054 25.6553 28.7404C24.806 29.0697 23.838 29.2937 22.4193 29.3604C22.0633 29.3764 21.7687 29.3897 21.47 29.4004L21.2113 29.4084C20.2386 29.4321 19.2656 29.4423 18.2927 29.4391L17.298 29.4404H15.5527C14.5797 29.4437 13.6067 29.4335 12.634 29.4097L12.3753 29.4017C12.0588 29.3903 11.7424 29.3769 11.426 29.3617C10.0073 29.2951 9.03933 29.0684 8.18866 28.7404C7.2989 28.4062 6.49298 27.8815 5.82733 27.2031C5.14872 26.5368 4.62363 25.7305 4.28866 24.8404C3.95933 23.9911 3.73533 23.0231 3.66866 21.6044C3.65381 21.288 3.64048 20.9716 3.62866 20.6551L3.62199 20.3964C3.59741 19.4237 3.5863 18.4507 3.58866 17.4777V14.7364C3.58494 13.7639 3.59472 12.7913 3.61799 11.8191L3.62733 11.5604C3.63799 11.2617 3.65133 10.9657 3.66733 10.6111C3.73399 9.19108 3.95799 8.22441 4.28733 7.37374C4.62249 6.4839 5.14861 5.67834 5.82866 5.01374C6.49385 4.33475 7.29928 3.80918 8.18866 3.47374C9.03933 3.14441 10.006 2.92041 11.426 2.85374L12.3753 2.81374L12.634 2.80708C13.6062 2.78251 14.5788 2.7714 15.5513 2.77374L18.2927 2.77508ZM16.922 9.44174C16.0387 9.42925 15.1617 9.59244 14.342 9.92183C13.5223 10.2512 12.7762 10.7402 12.1471 11.3605C11.5181 11.9807 11.0185 12.7198 10.6776 13.5348C10.3366 14.3497 10.161 15.2243 10.161 16.1077C10.161 16.9912 10.3366 17.8658 10.6776 18.6807C11.0185 19.4957 11.5181 20.2348 12.1471 20.855C12.7762 21.4752 13.5223 21.9643 14.342 22.2937C15.1617 22.623 16.0387 22.7862 16.922 22.7737C18.6901 22.7737 20.3858 22.0714 21.636 20.8211C22.8863 19.5709 23.5887 17.8752 23.5887 16.1071C23.5887 14.339 22.8863 12.6433 21.636 11.393C20.3858 10.1428 18.6901 9.44174 16.922 9.44174ZM16.922 12.1084C17.4533 12.0986 17.9813 12.1948 18.4751 12.3914C18.9688 12.5879 19.4184 12.8809 19.7977 13.2531C20.177 13.6254 20.4782 14.0695 20.6839 14.5595C20.8896 15.0495 20.9956 15.5756 20.9957 16.1071C20.9958 16.6385 20.89 17.1646 20.6844 17.6547C20.4789 18.1448 20.1778 18.589 19.7987 18.9614C19.4195 19.3338 18.97 19.6269 18.4763 19.8236C17.9826 20.0203 17.4547 20.1167 16.9233 20.1071C15.8625 20.1071 14.845 19.6856 14.0949 18.9355C13.3448 18.1854 12.9233 17.1679 12.9233 16.1071C12.9233 15.0462 13.3448 14.0288 14.0949 13.2786C14.845 12.5285 15.8625 12.1071 16.9233 12.1071L16.922 12.1084ZM23.922 7.44174C23.4919 7.45896 23.0851 7.64195 22.7868 7.95237C22.4886 8.2628 22.322 8.67659 22.322 9.10708C22.322 9.53756 22.4886 9.95135 22.7868 10.2618C23.0851 10.5722 23.4919 10.7552 23.922 10.7724C24.364 10.7724 24.7879 10.5968 25.1005 10.2843C25.4131 9.97169 25.5887 9.54777 25.5887 9.10574C25.5887 8.66372 25.4131 8.23979 25.1005 7.92723C24.7879 7.61467 24.364 7.43908 23.922 7.43908V7.44174Z" fill="currentColor"/>
</g>
</svg>
