<svg width="33" height="33" id="img" viewBox="0 0 33 33" fill="none" xmlns="http://www.w3.org/2000/svg">
<g id="ri:linkedin-fill">
<path id="Vector" d="M9.82357 6.77738C9.82321 7.48462 9.54192 8.16276 9.04158 8.6626C8.54123 9.16245 7.86281 9.44306 7.15557 9.44271C6.44832 9.44236 5.77019 9.16106 5.27034 8.66072C4.77049 8.16037 4.48988 7.48195 4.49023 6.77471C4.49059 6.06746 4.77188 5.38933 5.27223 4.88948C5.77257 4.38963 6.45099 4.10902 7.15823 4.10938C7.86548 4.10973 8.54362 4.39102 9.04346 4.89137C9.54331 5.39171 9.82392 6.07013 9.82357 6.77738ZM9.90357 11.4174H4.57023V28.1107H9.90357V11.4174ZM18.3302 11.4174H13.0236V28.1107H18.2769V19.3507C18.2769 14.4707 24.6369 14.0174 24.6369 19.3507V28.1107H29.9036V17.5374C29.9036 9.31071 20.4902 9.61738 18.2769 13.6574L18.3302 11.4174Z" fill="#006AFF"/>
</g>
</svg>
