<svg width="25" id="img" height="24" viewBox="0 0 25 24" fill="none" xmlns="http://www.w3.org/2000/svg">
<g id="Shoerline">
<path id="Vector" d="M3.22217 12H4.22217M20.2222 12C20.4874 12 20.7417 11.8946 20.9293 11.7071C21.1168 11.5196 21.2222 11.2652 21.2222 11V7C21.2222 6 20.6222 4 18.2222 4C15.8222 4 15.2222 6 15.2222 7M20.2222 12V14C20.2222 15.138 19.6392 17.248 17.4772 17.841M20.2222 12H4.22217M4.22217 12V14C4.22217 15.138 4.80517 17.248 6.96717 17.841M6.22217 20L6.96717 17.841M6.96717 17.841C7.33717 17.943 7.75417 18 8.22217 18H16.2222C16.6457 18.0037 17.0679 17.9502 17.4772 17.841M18.2222 20L17.4772 17.841M15.2222 7H13.2222M15.2222 7H17.2222" stroke="currentColor" stroke-width="1.5" stroke-linecap="round" stroke-linejoin="round"/>
</g>
</svg>
