<svg width="25" id="img" height="24" viewBox="0 0 25 24" fill="none" xmlns="http://www.w3.org/2000/svg">
<g id="Toilet">
<path id="Vector 2" d="M3.44434 12V4H8.32385V4.5M3.44434 12H21.0106M3.44434 12C3.44434 12 6.41828 15.0474 8.32385 17M21.0106 12C21.0106 12 21.9865 13.5 21.0106 15C20.0347 16.5 19.0588 16 17.107 17C15.1552 18 18.0829 20 18.0829 20H6.37205C6.37205 20 7.56163 18.1716 8.32385 17M21.0106 12C21.0106 12 20.3056 10.7353 19.0588 10.5C17.812 10.2647 9.95072 10.5 9.29976 10.5C8.64879 10.5 8.32385 11.5 8.32385 11.5V8.5M8.32385 17C9.84831 17 12.2275 17 12.2275 17M6.86 6.5H11.2516" stroke="currentColor" stroke-width="1.5" stroke-linecap="round" stroke-linejoin="round"/>
</g>
</svg>
